<svg width="30" height="30" viewBox="0 0 30 30" fill="none" xmlns="http://www.w3.org/2000/svg">
<g clip-path="url(#clip0)">
<path d="M28.8282 13.8281H8.45288C7.80565 13.8281 7.28101 14.3528 7.28101 15C7.28101 15.6472 7.80565 16.1719 8.45288 16.1719H28.8282C29.4754 16.1719 30.0001 15.6472 30.0001 15C30.0001 14.3528 29.4754 13.8281 28.8282 13.8281Z" fill="white"/>
<path d="M28.8282 5.03906H8.45288C7.80565 5.03906 7.28101 5.56371 7.28101 6.21094C7.28101 6.85816 7.80565 7.38281 8.45288 7.38281H28.8282C29.4754 7.38281 30.0001 6.85816 30.0001 6.21094C30.0001 5.56371 29.4754 5.03906 28.8282 5.03906Z" fill="white"/>
<path d="M28.8282 22.6172H8.45288C7.80565 22.6172 7.28101 23.1418 7.28101 23.7891C7.28101 24.4363 7.80565 24.9609 8.45288 24.9609H28.8282C29.4754 24.9609 30.0001 24.4363 30.0001 23.7891C30.0001 23.1418 29.4754 22.6172 28.8282 22.6172Z" fill="white"/>
<path d="M1.58203 7.79297C2.45576 7.79297 3.16406 7.08467 3.16406 6.21094C3.16406 5.33721 2.45576 4.62891 1.58203 4.62891C0.7083 4.62891 0 5.33721 0 6.21094C0 7.08467 0.7083 7.79297 1.58203 7.79297Z" fill="white"/>
<path d="M1.58203 16.582C2.45576 16.582 3.16406 15.8737 3.16406 15C3.16406 14.1263 2.45576 13.418 1.58203 13.418C0.7083 13.418 0 14.1263 0 15C0 15.8737 0.7083 16.582 1.58203 16.582Z" fill="white"/>
<path d="M1.58203 25.3711C2.45576 25.3711 3.16406 24.6628 3.16406 23.7891C3.16406 22.9153 2.45576 22.207 1.58203 22.207C0.7083 22.207 0 22.9153 0 23.7891C0 24.6628 0.7083 25.3711 1.58203 25.3711Z" fill="white"/>
</g>
<defs>
<clipPath id="clip0">
<rect width="30" height="30" fill="white"/>
</clipPath>
</defs>
</svg>
