<svg width="134" height="134" fill="none" xmlns="http://www.w3.org/2000/svg"><path d="M69.792 1.967a1.196 1.196 0 00-.148.513 1.39 1.39 0 00.06.525c.051.158.154.308.308.45.153.133.37.262.648.388.278.118.638.237 1.079.358.888.257 1.533.576 1.934.957.41.381.594.884.555 1.508a2.142 2.142 0 01-.268.934 2.13 2.13 0 01-.623.692c-.251.185-.55.321-.895.408a3.647 3.647 0 01-1.12.092 4.912 4.912 0 01-1.759-.424A5.196 5.196 0 0168.1 7.29l.608-.635c.4.412.809.728 1.228.947.42.212.91.336 1.473.371.546.035.99-.065 1.329-.299.347-.233.534-.558.56-.974a1.305 1.305 0 00-.06-.514 1.024 1.024 0 00-.298-.436 2.287 2.287 0 00-.626-.376 7.916 7.916 0 00-1.021-.354 8.642 8.642 0 01-1.191-.423 3.026 3.026 0 01-.814-.527 1.744 1.744 0 01-.456-.679 2.185 2.185 0 01-.106-.888 2.02 2.02 0 01.252-.877c.148-.262.348-.481.598-.659.252-.185.543-.321.873-.409a3.15 3.15 0 011.073-.106c.593.037 1.104.154 1.532.351.437.19.852.464 1.247.821l-.575.672a3.93 3.93 0 00-1.102-.742 3.429 3.429 0 00-1.176-.283 2.336 2.336 0 00-.723.059c-.212.056-.4.137-.56.243a1.286 1.286 0 00-.373.394z" fill="#fff"/><path fill-rule="evenodd" clip-rule="evenodd" d="M83.057 3.773c.083.339.085.705.008 1.099-.085.431-.242.794-.473 1.087-.23.293-.511.52-.842.684a3.02 3.02 0 01-1.086.305 4.53 4.53 0 01-1.235-.077l-1.93-.38-.552 2.806-.897-.176 1.562-7.953 2.976.585c.446.088.84.228 1.179.421.349.187.63.415.844.685.224.264.372.569.446.914zm-1.209 1.65c.15-.199.25-.43.302-.696.113-.575.001-1.046-.336-1.41-.328-.372-.814-.621-1.458-.748l-2.01-.395-.687 3.5 1.965.385c.325.064.629.08.91.05.289-.03.543-.102.762-.216.228-.12.412-.277.552-.47z" fill="#fff"/><path d="M91.872 5.017L86.33 3.123l-2.619 7.67 5.597 1.912.27-.79-4.732-1.616.916-2.684 4.184 1.43.27-.79-4.184-1.43.894-2.618 4.677 1.598.27-.788zm5.734 9.659l.269.8a5.914 5.914 0 01-.856.226 4.065 4.065 0 01-1.734-.065 4.48 4.48 0 01-.944-.364 3.996 3.996 0 01-2.042-2.392 4.198 4.198 0 01-.16-1.575 4.444 4.444 0 01.478-1.601 4.414 4.414 0 011.009-1.318c.417-.36.872-.626 1.367-.798a3.843 3.843 0 011.565-.216 3.987 3.987 0 011.617.447c.33.168.611.346.845.534.24.192.447.397.621.616.178.212.327.439.446.681.122.236.229.485.32.748l-.861.315a5.06 5.06 0 00-.638-1.222c-.257-.364-.632-.672-1.127-.924a3.068 3.068 0 00-1.23-.34 3.12 3.12 0 00-1.207.177 3.396 3.396 0 00-1.07.65 3.58 3.58 0 00-.8 1.06 3.71 3.71 0 00-.393 1.281c-.041.438-.007.854.104 1.249.118.398.305.761.562 1.091.266.327.6.591.998.795.495.252.967.38 1.415.383a5.136 5.136 0 001.446-.238zm5.484-3.826l-4.375 6.807.768.494 4.375-6.808-.768-.494z" fill="#fff"/><path fill-rule="evenodd" clip-rule="evenodd" d="M109.053 15.023l.664.54-2.281 8.664-.763-.621.614-2.261-3.422-2.782-2.096 1.056-.728-.591 8.012-4.005zm-4.392 3.128l2.866 2.33 1.177-4.369-4.043 2.04z" fill="#fff"/><path d="M108.61 25.489l3.722 4.015.62-.574-3.101-3.345 5.321-4.936-.622-.67-5.94 5.51z" fill="#fff"/><path fill-rule="evenodd" clip-rule="evenodd" d="M124.346 37.397a4.265 4.265 0 01-1.22 1.074 4.355 4.355 0 01-1.537.562 4.098 4.098 0 01-3.039-.7 4.163 4.163 0 01-1.151-1.283 4.181 4.181 0 01-.573-1.625 4.069 4.069 0 01.116-1.576c.146-.508.384-.977.713-1.406a4.54 4.54 0 011.236-1.07 4.268 4.268 0 011.527-.555 4.172 4.172 0 011.586.042 3.95 3.95 0 011.453.658c.459.32.846.746 1.161 1.277.314.53.504 1.07.567 1.615a3.977 3.977 0 01-.839 2.987zm-2.973.727a3.499 3.499 0 001.249-.458 3.52 3.52 0 001.001-.876 3.133 3.133 0 00.677-2.353 3.027 3.027 0 00-.421-1.231 3.09 3.09 0 00-.884-.97 2.958 2.958 0 00-1.115-.495 3.39 3.39 0 00-1.252-.025 3.576 3.576 0 00-1.233.462 3.67 3.67 0 00-1.006.867 3.289 3.289 0 00-.574 1.12 3.09 3.09 0 00.323 2.473c.236.399.525.72.868.966.353.248.73.415 1.131.5.4.086.812.093 1.236.02z" fill="#fff"/><path d="M130.198 44.704l-2.21-5.387-7.495 3.076.347.846 3.266-1.34 1.665 4.06.771-.317-1.665-4.06 2.677-1.098 1.863 4.541.781-.32zm.905 2.814l1.48 5.632-.817.215-1.247-4.748-2.799.735 1.115 4.244-.806.212-1.115-4.244-3.414.898-.232-.885 7.835-2.06zm2.733 14.364l-.72-5.813-8.04.996.727 5.871.827-.102-.615-4.964 2.814-.349.544 4.39.827-.103-.544-4.39 2.745-.34.608 4.907.827-.103z" fill="#fff"/><path fill-rule="evenodd" clip-rule="evenodd" d="M129.124 69.18l-3.36 2.423.023-1.123 3.195-2.287.046-2.316-3.148-.063.018-.914 8.102.162-.07 3.485a3.905 3.905 0 01-.197 1.2c-.123.36-.295.666-.517.917a2.13 2.13 0 01-.775.575 2.27 2.27 0 01-.988.189 2.441 2.441 0 01-.911-.18 2.102 2.102 0 01-.685-.478 2.53 2.53 0 01-.473-.704 3.297 3.297 0 01-.26-.886zm1.61 1.144c.206.113.44.172.703.177.509.01.906-.164 1.191-.52.293-.358.446-.864.459-1.52l.05-2.501-3.287-.066-.05 2.49c-.006.3.027.579.099.835.072.256.176.478.311.666a1.5 1.5 0 00.524.44z" fill="#fff"/><path d="M131.479 74.969c.184.027.349.092.498.192a1.3 1.3 0 01.36.406c.091.17.155.363.193.58.036.224.035.466-.005.725a3.421 3.421 0 01-.385 1.148c-.195.36-.473.705-.835 1.032l.618.633c.39-.362.699-.753.927-1.171.233-.41.395-.908.484-1.496a3.14 3.14 0 00-.012-1.079 2.546 2.546 0 00-.331-.905 2.009 2.009 0 00-.603-.654 2.01 2.01 0 00-.851-.328 2.183 2.183 0 00-.894.028c-.261.07-.499.202-.716.395a3.027 3.027 0 00-.596.765 8.54 8.54 0 00-.525 1.15 7.985 7.985 0 01-.443.986c-.141.26-.284.457-.429.59a1.03 1.03 0 01-.46.259 1.307 1.307 0 01-.518.015 1.208 1.208 0 01-.921-.643c-.203-.36-.263-.81-.181-1.351.084-.557.251-1.036.499-1.435a4.87 4.87 0 011.051-1.14l-.579-.662c-.508.415-.908.87-1.202 1.363a4.912 4.912 0 00-.576 1.716 3.622 3.622 0 00-.007 1.123c.056.352.165.662.328.928a2.11 2.11 0 001.541 1.031c.618.093 1.134-.047 1.55-.42.415-.367.789-.982 1.123-1.845.159-.428.309-.776.451-1.043a2.7 2.7 0 01.444-.612c.154-.14.312-.23.474-.268.161-.038.338-.042.528-.013zm-6.637 16.591l-.872-.346 1.191-2.993.871.346-1.19 2.994zm-3.229 10.568c.152.105.273.235.363.391.085.162.134.336.146.522.008.193-.019.395-.08.606a2.355 2.355 0 01-.322.65 3.433 3.433 0 01-.848.864 3.916 3.916 0 01-1.203.562l.279.84c.51-.155.959-.371 1.346-.647.389-.266.753-.644 1.09-1.133.219-.318.373-.643.461-.976.095-.328.128-.648.099-.958a2.025 2.025 0 00-.257-.852 2.006 2.006 0 00-.622-.668 2.182 2.182 0 00-.816-.366 1.747 1.747 0 00-.816.042c-.28.079-.57.221-.87.426-.306.212-.631.48-.976.804a8.074 8.074 0 01-.829.694 2.31 2.31 0 01-.645.343 1.021 1.021 0 01-.527.03 1.285 1.285 0 01-.471-.213 1.204 1.204 0 01-.547-.981c-.026-.412.117-.843.428-1.294.319-.464.678-.821 1.076-1.072a4.894 4.894 0 011.444-.566l-.231-.848a5.194 5.194 0 00-1.677.7 4.913 4.913 0 00-1.269 1.291c-.228.33-.394.666-.497 1.007a2.528 2.528 0 00-.112.977c.025.318.116.615.272.891.156.277.377.513.663.71.515.355 1.041.456 1.578.301.533-.148 1.139-.537 1.816-1.166a8.95 8.95 0 01.862-.742 2.71 2.71 0 01.667-.355c.2-.059.381-.07.543-.034.163.037.323.11.482.22z" fill="#fff"/><path fill-rule="evenodd" clip-rule="evenodd" d="M113.583 112.924a2.524 2.524 0 01-.944-.559 2.506 2.506 0 01-.686-.964 2.426 2.426 0 01-.151-1.072c.026-.362.125-.724.298-1.087.178-.358.412-.697.702-1.017l1.318-1.456-2.115-1.916.612-.677 5.996 5.43-2.032 2.245a3.873 3.873 0 01-.967.792 2.655 2.655 0 01-1.02.37 2.063 2.063 0 01-1.011-.089zm-.789-1.884c.094.23.24.436.44.617.434.393.894.539 1.38.439.486-.09.949-.378 1.388-.863l1.373-1.517-2.638-2.389-1.342 1.482a3.005 3.005 0 00-.51.754 2.086 2.086 0 00-.208.763c-.014.257.025.495.117.714z" fill="#fff"/><path d="M108.095 119.866l4.45-3.808-5.266-6.159-4.495 3.845.542.634 3.8-3.251 1.843 2.156-3.36 2.874.542.634 3.36-2.875 1.798 2.103-3.756 3.213.542.634zm-11.285-.009l-.824-.178c.061-.294.142-.578.244-.852a4.088 4.088 0 01.942-1.456c.218-.22.483-.428.796-.626a4.001 4.001 0 013.1-.531c.508.126.986.35 1.434.669.441.324.818.734 1.131 1.23.309.49.514 1.004.616 1.542.095.542.09 1.07-.015 1.583a3.853 3.853 0 01-.615 1.456 3.98 3.98 0 01-1.211 1.16c-.313.198-.61.349-.891.453-.288.108-.57.182-.847.219a3.32 3.32 0 01-.814.034 5.57 5.57 0 01-.806-.107l.17-.901c.467.089.926.114 1.376.076.444-.033.901-.198 1.371-.495.379-.238.686-.533.922-.882.229-.345.384-.721.465-1.128a3.388 3.388 0 00-.01-1.253 3.613 3.613 0 00-.501-1.231 3.711 3.711 0 00-.9-.993 3.412 3.412 0 00-1.126-.549 3.297 3.297 0 00-1.224-.076 3.063 3.063 0 00-1.194.452c-.47.296-.82.636-1.053 1.02-.228.39-.407.845-.536 1.364zm.432 6.759l-3.565-7.294-.823.402 3.565 7.294.823-.402z" fill="#fff"/><path fill-rule="evenodd" clip-rule="evenodd" d="M90.647 129.522l-.804.294-6.268-6.4.924-.337 1.626 1.686 4.142-1.514.168-2.342.88-.321-.668 8.934zm-.435-5.376l-3.468 1.268 3.147 3.25.321-4.518z" fill="#fff"/><path d="M81.892 123.773l-5.356 1.131.174.827 4.462-.942 1.497 7.103.895-.189-1.672-7.93z" fill="#fff"/><path fill-rule="evenodd" clip-rule="evenodd" d="M63.778 131.258a4.269 4.269 0 01-.327-1.593 4.356 4.356 0 01.275-1.614 4.1 4.1 0 012.116-2.292 4.155 4.155 0 011.684-.363 4.147 4.147 0 011.695.308c.505.216.942.51 1.31.882.37.38.658.819.867 1.317a4.51 4.51 0 01.315 1.605 4.262 4.262 0 01-.275 1.602 4.173 4.173 0 01-.823 1.357 3.963 3.963 0 01-1.292.935 4.031 4.031 0 01-1.684.375 4.084 4.084 0 01-1.684-.308 3.964 3.964 0 01-1.322-.894 3.89 3.89 0 01-.855-1.317zm.843-2.944a3.518 3.518 0 00-.221 1.312c.007.464.095.898.264 1.305a3.114 3.114 0 001.707 1.755 3.02 3.02 0 001.277.246 3.11 3.11 0 001.28-.287c.383-.176.711-.417.984-.723.273-.305.487-.664.642-1.075.148-.404.218-.838.21-1.301a3.67 3.67 0 00-.252-1.304 3.29 3.29 0 00-.688-1.054c-.29-.297-.63-.53-1.019-.702a3.097 3.097 0 00-1.289-.245 3.134 3.134 0 00-1.269.275c-.39.184-.722.429-.995.734a3.276 3.276 0 00-.63 1.064z" fill="#fff"/><path d="M54.296 132.445l5.763.873 1.215-8.023-.905-.137-.53 3.496-4.342-.659-.125.826 4.343.658-.434 2.865-4.858-.736-.127.837zm-2.848-.672l-5.593-1.614.234-.812 4.715 1.36.802-2.781-4.215-1.216.231-.801 4.215 1.216.978-3.393.879.254-2.246 7.787zm-13.73-5.012l5.36 2.36 3.264-7.417-5.413-2.384-.335.763 4.576 2.015-1.143 2.596-4.046-1.781-.336.762 4.047 1.782-1.115 2.533-4.523-1.992-.336.763z" fill="#fff"/><path fill-rule="evenodd" clip-rule="evenodd" d="M33.856 118.989l-.36-4.134.953.595.329 3.922 1.968 1.228 1.668-2.677.777.485-4.294 6.888-2.96-1.847a3.885 3.885 0 01-.932-.785 2.678 2.678 0 01-.523-.914 2.132 2.132 0 01-.097-.963c.037-.323.152-.638.344-.947a2.45 2.45 0 01.623-.691c.23-.166.484-.281.761-.345a2.53 2.53 0 01.848-.045c.3.031.597.108.895.23zm-1.81.798c-.202.12-.372.292-.511.515-.27.433-.325.863-.164 1.292.157.435.515.826 1.072 1.174l2.125 1.325 1.742-2.795-2.115-1.319a2.87 2.87 0 00-.77-.343 2.093 2.093 0 00-.732-.074 1.5 1.5 0 00-.646.225z" fill="#fff"/><path d="M27.69 117.999a1.199 1.199 0 01-.422.328 1.287 1.287 0 01-.533.1 1.932 1.932 0 01-.596-.133 2.336 2.336 0 01-.62-.377 3.438 3.438 0 01-.785-.921 3.932 3.932 0 01-.455-1.248l-.86.205c.11.521.285.987.526 1.397.23.411.575.806 1.033 1.185.297.246.607.428.931.545.319.124.634.184.946.182a1.998 1.998 0 001.59-.742c.217-.262.362-.522.436-.781.074-.26.084-.532.03-.817a3.026 3.026 0 00-.349-.905 8.646 8.646 0 00-.715-1.042 7.872 7.872 0 01-.618-.888 2.279 2.279 0 01-.285-.672 1.022 1.022 0 01.016-.527c.046-.153.13-.303.253-.452a1.21 1.21 0 011.025-.459c.412.011.83.191 1.251.54.434.359.759.748.974 1.166.21.424.355.92.436 1.488l.865-.156a5.197 5.197 0 00-.55-1.732 4.91 4.91 0 00-1.174-1.377 3.637 3.637 0 00-.96-.584 2.53 2.53 0 00-.963-.197 2.147 2.147 0 00-.911.193 2.144 2.144 0 00-.766.599c-.398.482-.544.997-.437 1.546.1.544.435 1.182 1.003 1.912.285.357.506.665.662.924.152.265.25.497.296.696.042.204.037.385-.014.544-.05.158-.138.312-.26.46zm-10.767-14.192l.741-.572 1.963 2.543-.74.572-1.964-2.543zm-7.471-8.192a1.196 1.196 0 01-.522.112 1.287 1.287 0 01-.524-.142 1.898 1.898 0 01-.479-.38 2.336 2.336 0 01-.394-.608 3.431 3.431 0 01-.307-1.171 3.92 3.92 0 01.133-1.322l-.864-.19a4.596 4.596 0 00-.133 1.488c.029.47.167.976.415 1.516.16.351.361.65.601.896.234.25.491.442.773.576a1.994 1.994 0 001.755.022c.309-.141.553-.312.732-.514.18-.2.307-.442.382-.722.075-.28.101-.603.08-.966a8.647 8.647 0 00-.192-1.25 7.927 7.927 0 01-.17-1.068 2.29 2.29 0 01.034-.73c.048-.191.13-.347.244-.468.108-.117.249-.216.424-.296a1.208 1.208 0 011.123.033c.367.188.664.532.892 1.03.235.512.358 1.003.37 1.473.005.473-.08.983-.254 1.53l.847.236a5.2 5.2 0 00.258-1.8 4.917 4.917 0 00-.46-1.75 3.65 3.65 0 00-.61-.943c-.24-.264-.5-.463-.782-.596a2.126 2.126 0 00-.904-.223 2.139 2.139 0 00-.95.206c-.568.261-.923.662-1.066 1.203-.145.534-.121 1.253.072 2.157.103.446.168.82.196 1.12.02.305.008.557-.036.756a1.074 1.074 0 01-.25.484c-.114.12-.26.22-.434.3z" fill="#fff"/><path fill-rule="evenodd" clip-rule="evenodd" d="M4.252 83.192c.26-.233.58-.409.964-.527.42-.129.814-.161 1.181-.096.367.065.7.204 1 .419.299.207.56.478.783.813.217.337.389.713.516 1.126l.577 1.881 2.733-.84.269.874-7.745 2.38-.89-2.899a3.903 3.903 0 01-.187-1.238c0-.396.068-.752.205-1.069a2.06 2.06 0 01.594-.824zm2.025.286a1.68 1.68 0 00-.756.063c-.56.172-.922.493-1.084.963-.172.464-.162 1.01.03 1.637l.602 1.96 3.408-1.048-.588-1.915a3.002 3.002 0 00-.387-.825 2.098 2.098 0 00-.55-.57 1.582 1.582 0 00-.675-.265z" fill="#fff"/><path d="M1.138 74.792l.937 5.8 8.021-1.297-.946-5.857-.825.133.8 4.952-2.807.454-.708-4.379-.825.134.708 4.378-2.739.443-.79-4.894-.826.133zm5.836-9.582l.576-.615c.22.203.423.419.605.646A4.067 4.067 0 018.92 66.8c.076.3.118.634.126 1.004a4.002 4.002 0 01-1.138 2.933 4.19 4.19 0 01-1.311.886 4.442 4.442 0 01-1.636.338 4.408 4.408 0 01-1.639-.264 4.196 4.196 0 01-1.35-.826 3.846 3.846 0 01-.931-1.276 3.99 3.99 0 01-.373-1.636c-.008-.37.015-.703.07-.998.055-.302.138-.582.248-.84.102-.257.232-.495.389-.715.15-.22.318-.431.507-.636l.685.61a5.06 5.06 0 00-.773 1.14c-.2.398-.293.875-.28 1.431.01.448.104.862.282 1.244.178.375.42.701.728.98.307.27.667.483 1.08.636.404.145.842.212 1.312.202.47-.01.909-.098 1.314-.261a3.43 3.43 0 001.05-.684c.294-.292.526-.63.695-1.012.16-.39.236-.808.226-1.256-.012-.555-.123-1.031-.333-1.428a5.142 5.142 0 00-.894-1.161zM.979 62.175l8.076.64.073-.912-8.077-.64-.072.912z" fill="#fff"/><path fill-rule="evenodd" clip-rule="evenodd" d="M1.839 54.97l.16-.842 8.704-2.106-.183.966-2.28.534-.823 4.333L9.34 59.2l-.175.921-7.327-5.15zm4.838 2.38l.688-3.63-4.402 1.038 3.713 2.591z" fill="#fff"/><path d="M11.222 50.394l1.752-5.203-.803-.27-1.46 4.333-6.893-2.323-.293.87 7.697 2.593z" fill="#fff"/><path fill-rule="evenodd" clip-rule="evenodd" d="M14.21 30.914a4.26 4.26 0 011.527.556c.484.287.894.647 1.23 1.08a4.105 4.105 0 01.843 3.003 4.158 4.158 0 01-.573 1.625 4.156 4.156 0 01-1.15 1.282 4.074 4.074 0 01-1.438.655 4.2 4.2 0 01-1.575.048 4.5 4.5 0 01-1.531-.572 4.258 4.258 0 01-1.22-1.074 4.173 4.173 0 01-.724-1.412 3.957 3.957 0 01-.12-1.591c.061-.556.249-1.1.564-1.631a4.074 4.074 0 011.144-1.273 3.955 3.955 0 013.023-.696zm2.064 2.26a3.52 3.52 0 00-1.001-.876 3.516 3.516 0 00-1.249-.458 3.135 3.135 0 00-1.252.024 3.202 3.202 0 00-1.136.51c-.35.242-.643.562-.879.96a3.088 3.088 0 00-.426 1.241c-.05.418-.018.824.1 1.216.117.393.31.763.579 1.111.266.338.598.624.997.86a3.67 3.67 0 001.242.469 3.237 3.237 0 002.389-.534 3.09 3.09 0 00.884-.97c.236-.398.38-.807.43-1.225a3.06 3.06 0 00-.103-1.233 3.263 3.263 0 00-.575-1.094z" fill="#fff"/><path d="M17.98 22.282l-3.7 4.496 6.253 5.152.581-.706-2.724-2.245 2.788-3.387-.643-.53-2.789 3.387-2.233-1.84 3.119-3.79-.652-.537zm2.075-2.091l4.25-3.96.575.617-3.582 3.338 1.967 2.113 3.202-2.983.567.608-3.202 2.984 2.4 2.577-.667.623-5.51-5.917zm11.279-9.168l-4.743 3.398 4.699 6.564 4.79-3.431-.483-.675-4.05 2.9-1.645-2.297 3.581-2.565L33 14.24l-3.581 2.566-1.604-2.242 4.003-2.867-.484-.675z" fill="#fff"/><path fill-rule="evenodd" clip-rule="evenodd" d="M39.981 11.62l3.734 1.79-.996.518-3.536-1.71-2.054 1.067 1.45 2.794-.81.422-3.735-7.192 3.091-1.606c.398-.207.78-.34 1.148-.401.376-.065.726-.06 1.052.014.322.068.614.203.875.406.259.197.472.456.639.778.156.3.249.596.278.886a2.11 2.11 0 01-.091.83c-.082.26-.213.51-.392.752-.18.24-.397.458-.653.652zm.234-1.961a1.5 1.5 0 00-.182-.702c-.235-.452-.577-.717-1.027-.797-.453-.086-.97.022-1.553.325l-2.218 1.152 1.515 2.918 2.208-1.147c.267-.139.496-.301.686-.487.19-.186.336-.383.436-.592.097-.216.142-.439.135-.67z" fill="#fff"/><path d="M44.063 6.862A1.193 1.193 0 0144 6.335c.026-.18.089-.35.188-.507.107-.16.247-.307.42-.44.18-.137.394-.249.64-.335a3.416 3.416 0 011.19-.198 3.89 3.89 0 011.298.253l.268-.84A4.575 4.575 0 0046.54 4c-.47-.015-.984.076-1.542.272a3.133 3.133 0 00-.944.515 2.548 2.548 0 00-.641.714 2.01 2.01 0 00-.293.837c-.034.297.002.598.109.902.112.32.26.578.443.774.183.197.41.345.681.445.272.1.589.156.951.168.37.008.789-.017 1.257-.075.43-.053.788-.077 1.075-.072.294.003.534.037.72.102.185.065.333.16.442.285a1.3 1.3 0 01.255.448c.137.392.092.762-.136 1.111-.22.346-.588.61-1.103.79-.53.187-1.028.264-1.495.232a4.884 4.884 0 01-1.494-.392l-.312.819a5.176 5.176 0 001.76.42c.577.018 1.17-.08 1.78-.294a3.63 3.63 0 00.99-.52 2.5 2.5 0 00.664-.721c.166-.27.267-.562.303-.877a2.134 2.134 0 00-.117-.96c-.207-.589-.571-.978-1.095-1.17-.516-.193-1.231-.235-2.146-.125a8.73 8.73 0 01-1.129.09 2.678 2.678 0 01-.746-.104 1.068 1.068 0 01-.456-.292 1.389 1.389 0 01-.26-.46zM61.77 4.905l.104.928-3.186.354-.103-.928 3.186-.354z" fill="#fff"/></svg>