<svg width="134" height="134" viewBox="0 0 134 134" fill="none" xmlns="http://www.w3.org/2000/svg">
<path d="M69.7919 1.96701C69.7047 2.12393 69.6553 2.29483 69.6437 2.47971C69.6315 2.67229 69.6514 2.84755 69.7034 3.00549C69.7553 3.16343 69.858 3.31297 70.0115 3.4541C70.1654 3.58753 70.3815 3.71713 70.6596 3.84291C70.9382 3.96098 71.298 4.08029 71.7388 4.20084C72.6272 4.45783 73.272 4.77682 73.6732 5.15783C74.0822 5.53932 74.267 6.04204 74.2278 6.666C74.206 7.01265 74.1168 7.32412 73.9603 7.60041C73.8037 7.87671 73.596 8.10725 73.337 8.29202C73.0856 8.47728 72.7872 8.61317 72.4416 8.69969C72.0959 8.78621 71.7229 8.81687 71.3225 8.79167C70.6756 8.75096 70.0892 8.60965 69.5633 8.36774C69.0455 8.11861 68.5578 7.75923 68.1003 7.28962L68.7084 6.65506C69.1077 7.06687 69.517 7.38264 69.9361 7.60236C70.3557 7.81438 70.8466 7.93808 71.4087 7.97346C71.9555 8.00787 72.3986 7.90815 72.738 7.6743C73.0851 7.44093 73.2717 7.11626 73.2979 6.70028C73.31 6.5077 73.2899 6.33629 73.2375 6.18606C73.1856 6.02811 73.0865 5.88267 72.9402 5.74973C72.7939 5.61678 72.5854 5.49152 72.3144 5.37393C72.0512 5.25682 71.7107 5.13872 71.293 5.01963C70.8373 4.89041 70.4402 4.74942 70.1019 4.59665C69.7713 4.44437 69.5002 4.26877 69.2885 4.06983C69.0768 3.8709 68.9248 3.64479 68.8325 3.3915C68.7402 3.13822 68.7047 2.8421 68.726 2.50316C68.7464 2.17962 68.8305 1.88717 68.9784 1.6258C69.1262 1.36442 69.3256 1.14496 69.5764 0.967399C69.8277 0.78214 70.1185 0.645765 70.4487 0.558275C70.7794 0.463081 71.1373 0.427601 71.5223 0.451833C72.1153 0.489151 72.6259 0.606358 73.0541 0.803454C73.4906 0.993331 73.9063 1.26697 74.3014 1.62438L73.7257 2.29579C73.3677 1.96391 73.0006 1.71653 72.6243 1.55364C72.2557 1.39123 71.8634 1.29694 71.4476 1.27077C71.1858 1.25429 70.9449 1.27394 70.7249 1.32969C70.5126 1.38594 70.3258 1.46699 70.1646 1.57284C70.011 1.67918 69.8867 1.81057 69.7919 1.96701Z" fill="white"/>
<path fill-rule="evenodd" clip-rule="evenodd" d="M83.057 3.77287C83.1398 4.11167 83.1425 4.47798 83.0651 4.87181C82.9803 5.3035 82.8226 5.6658 82.5921 5.95871C82.3615 6.25163 82.0808 6.47962 81.75 6.64268C81.4267 6.80724 81.0646 6.9091 80.6637 6.94827C80.2644 6.97987 79.8527 6.95399 79.4287 6.87063L77.4981 6.49103L76.9467 9.29703L76.0496 9.12063L77.6121 1.1684L80.5875 1.75343C81.0342 1.84126 81.4273 1.98149 81.767 2.17412C82.1156 2.36066 82.3971 2.58906 82.6113 2.85931C82.8346 3.12347 82.9832 3.42799 83.057 3.77287ZM81.8481 5.42305C81.9972 5.22426 82.0978 4.99233 82.1499 4.72725C82.263 4.15167 82.151 3.68127 81.8139 3.31607C81.4858 2.94478 81 2.69587 80.3564 2.56934L78.3463 2.17411L77.6588 5.67309L79.6235 6.05938C79.949 6.12339 80.2525 6.13979 80.5339 6.10859C80.8228 6.07887 81.0768 6.00688 81.2958 5.89262C81.5239 5.77228 81.708 5.61576 81.8481 5.42305Z" fill="white"/>
<path d="M91.8721 5.01663L86.3302 3.12289L83.7112 10.7922L89.3079 12.7046L89.5773 11.9158L84.8458 10.299L85.7625 7.61474L89.9463 9.0444L90.2157 8.25556L86.0319 6.8259L86.926 4.20739L91.6027 5.80547L91.8721 5.01663Z" fill="white"/>
<path d="M97.6062 14.6761L97.8746 15.4755C97.591 15.5735 97.3057 15.649 97.0189 15.7021C96.7425 15.7519 96.4594 15.7722 96.1696 15.7632C95.8798 15.7541 95.585 15.7122 95.2854 15.6375C94.9857 15.5628 94.6709 15.4414 94.3409 15.2732C93.8183 15.007 93.386 14.6655 93.0441 14.2487C92.7021 13.832 92.4536 13.3762 92.2985 12.8814C92.1469 12.3798 92.0939 11.8547 92.1394 11.3062C92.1917 10.7612 92.3509 10.2273 92.6171 9.70461C92.8797 9.18878 93.216 8.74943 93.6258 8.38657C94.0426 8.02721 94.4983 7.76135 94.9931 7.58897C95.4913 7.40972 96.0129 7.33765 96.5579 7.37276C97.1063 7.40099 97.6453 7.54997 98.1747 7.81969C98.5047 7.98783 98.7863 8.16597 99.0196 8.3541C99.2597 8.54574 99.467 8.75094 99.6414 8.9697C99.8192 9.18158 99.9677 9.40878 100.087 9.6513C100.209 9.88694 100.316 10.1363 100.407 10.3993L99.5456 10.7139C99.3833 10.2674 99.1706 9.86025 98.9076 9.49239C98.6515 9.12805 98.276 8.81977 97.7809 8.56756C97.3821 8.36439 96.9724 8.25089 96.5515 8.22705C96.1376 8.20672 95.7351 8.26587 95.3442 8.4045C94.9601 8.54663 94.6031 8.76318 94.2731 9.05414C93.9535 9.34172 93.6869 9.69529 93.4733 10.1148C93.2597 10.5344 93.1288 10.9614 93.0807 11.396C93.0395 11.8341 93.0744 12.2503 93.1854 12.6447C93.3032 13.0425 93.4903 13.4063 93.7466 13.7362C94.0134 14.0626 94.3461 14.3274 94.7449 14.5306C95.24 14.7828 95.7118 14.9106 96.1603 14.9139C96.6124 14.9104 97.0944 14.8311 97.6062 14.6761Z" fill="white"/>
<path d="M103.09 10.8493L98.7147 17.6569L99.4827 18.1508L103.858 11.3432L103.09 10.8493Z" fill="white"/>
<path fill-rule="evenodd" clip-rule="evenodd" d="M109.053 15.0226L109.717 15.5629L107.436 24.2265L106.673 23.6058L107.287 21.3449L103.865 18.5629L101.769 19.6191L101.041 19.0276L109.053 15.0226ZM104.661 18.1514L107.527 20.4806L108.704 16.1121L104.661 18.1514Z" fill="white"/>
<path d="M108.61 25.489L112.332 29.5044L112.952 28.9298L109.851 25.5849L115.172 20.649L114.55 19.9784L108.61 25.489Z" fill="white"/>
<path fill-rule="evenodd" clip-rule="evenodd" d="M124.346 37.3973C124.017 37.8258 123.61 38.1837 123.126 38.4711C122.641 38.7584 122.129 38.9457 121.589 39.0329C121.055 39.1162 120.53 39.1003 120.013 38.9851C119.496 38.87 119.009 38.6524 118.55 38.3324C118.098 38.0084 117.714 37.5809 117.399 37.0499C117.085 36.5189 116.894 35.9772 116.826 35.425C116.763 34.8794 116.801 34.3541 116.942 33.8493C117.088 33.3405 117.326 32.8718 117.655 32.4434C117.995 32.0176 118.407 31.6611 118.891 31.3737C119.376 31.0864 119.885 30.901 120.418 30.8177C120.959 30.7305 121.487 30.7445 122.004 30.8597C122.521 30.9748 123.005 31.1944 123.457 31.5183C123.916 31.8383 124.303 32.2638 124.618 32.7949C124.932 33.3259 125.122 33.8642 125.185 34.4098C125.252 34.9621 125.212 35.4926 125.066 36.0014C124.925 36.5063 124.685 36.9716 124.346 37.3973ZM121.373 38.1245C121.807 38.0553 122.224 37.9026 122.622 37.6664C123.02 37.4302 123.354 37.1381 123.623 36.7901C123.896 36.4487 124.089 36.0785 124.202 35.6793C124.315 35.2802 124.348 34.8661 124.3 34.437C124.255 34.0146 124.115 33.6043 123.879 33.206C123.643 32.8077 123.348 32.4846 122.995 32.2366C122.652 31.9913 122.281 31.8259 121.88 31.7405C121.48 31.655 121.062 31.6469 120.628 31.7162C120.204 31.7881 119.793 31.9422 119.395 32.1784C118.997 32.4145 118.662 32.7033 118.389 33.0447C118.12 33.3927 117.928 33.7663 117.815 34.1654C117.702 34.5646 117.667 34.9753 117.712 35.3978C117.76 35.8268 117.902 36.2405 118.138 36.6388C118.374 37.037 118.663 37.3588 119.006 37.6041C119.359 37.8521 119.736 38.0188 120.137 38.1043C120.537 38.1897 120.949 38.1965 121.373 38.1245Z" fill="white"/>
<path d="M130.198 44.7043L127.988 39.3167L120.493 42.3933L120.84 43.2394L124.106 41.8989L125.771 45.9584L126.542 45.642L124.877 41.5825L127.554 40.4837L129.417 45.0252L130.198 44.7043Z" fill="white"/>
<path d="M131.103 47.5176L132.583 53.15L131.766 53.3648L130.519 48.6169L127.72 49.3524L128.835 53.5963L128.029 53.8081L126.914 49.5642L123.5 50.4615L123.268 49.5769L131.103 47.5176Z" fill="white"/>
<path d="M133.836 61.8824L133.116 56.0685L125.076 57.0646L125.803 62.936L126.63 62.8335L126.015 57.8699L128.829 57.5213L129.373 61.9104L130.2 61.8079L129.656 57.4188L132.401 57.0787L133.009 61.9849L133.836 61.8824Z" fill="white"/>
<path fill-rule="evenodd" clip-rule="evenodd" d="M129.124 69.1804L125.764 71.6034L125.787 70.4803L128.982 68.193L129.028 65.8775L125.88 65.8145L125.898 64.8999L134 65.062L133.93 68.5469C133.921 68.9945 133.855 69.3947 133.733 69.7475C133.61 70.1079 133.438 70.4133 133.216 70.6637C133.003 70.9143 132.744 71.106 132.441 71.2389C132.145 71.372 131.815 71.4349 131.453 71.4276C131.113 71.4208 130.81 71.3607 130.542 71.2472C130.282 71.1339 130.053 70.9749 129.857 70.7702C129.667 70.5734 129.51 70.3386 129.384 70.0658C129.259 69.7931 129.172 69.4979 129.124 69.1804ZM130.734 70.3245C130.94 70.4367 131.174 70.4955 131.437 70.5007C131.946 70.5109 132.343 70.3374 132.628 69.9802C132.921 69.6231 133.074 69.1165 133.087 68.4605L133.137 65.9597L129.85 65.8939L129.8 68.3831C129.794 68.6842 129.827 68.9628 129.899 69.2191C129.971 69.4753 130.075 69.6974 130.21 69.8855C130.353 70.0736 130.527 70.22 130.734 70.3245Z" fill="white"/>
<path d="M131.479 74.9686C131.663 74.9964 131.828 75.0606 131.977 75.1612C132.124 75.2695 132.244 75.4048 132.337 75.5672C132.428 75.7372 132.492 75.9304 132.53 76.1469C132.566 76.371 132.565 76.6127 132.525 76.8722C132.463 77.2843 132.334 77.6668 132.14 78.0199C131.945 78.3806 131.667 78.7248 131.305 79.0524L131.923 79.6849C132.313 79.3226 132.622 78.9323 132.85 78.514C133.083 78.1046 133.245 77.606 133.334 77.0184C133.392 76.6369 133.388 76.2772 133.322 75.9393C133.264 75.6026 133.154 75.3009 132.991 75.0342C132.837 74.7687 132.635 74.5508 132.388 74.3805C132.141 74.2102 131.857 74.1008 131.537 74.0521C131.201 74.0012 130.903 74.0106 130.643 74.0804C130.382 74.1501 130.144 74.2818 129.927 74.4753C129.71 74.6688 129.512 74.9236 129.331 75.2397C129.149 75.5634 128.974 75.9466 128.806 76.3894C128.65 76.7952 128.503 77.1242 128.363 77.3762C128.222 77.6359 128.079 77.8327 127.934 77.9668C127.789 78.1009 127.635 78.1869 127.474 78.2248C127.319 78.2638 127.147 78.2689 126.956 78.2399C126.544 78.1774 126.237 77.9629 126.035 77.5966C125.832 77.2379 125.772 76.7876 125.854 76.2458C125.938 75.6887 126.105 75.2104 126.353 74.8109C126.608 74.4125 126.958 74.0324 127.404 73.6706L126.825 73.0089C126.317 73.4237 125.917 73.8781 125.623 74.3722C125.336 74.8751 125.144 75.4471 125.047 76.0881C124.986 76.4849 124.984 76.8593 125.04 77.2113C125.096 77.5633 125.205 77.8726 125.368 78.1393C125.529 78.4136 125.74 78.6408 126.002 78.8211C126.263 79.0013 126.565 79.1174 126.909 79.1695C127.527 79.2634 128.043 79.1232 128.459 78.7492C128.874 78.3827 129.248 77.7682 129.582 76.9054C129.741 76.4767 129.891 76.1287 130.033 75.8615C130.183 75.5953 130.331 75.3914 130.477 75.2497C130.631 75.1091 130.789 75.0199 130.951 74.982C131.112 74.9441 131.289 74.9396 131.479 74.9686Z" fill="white"/>
<path d="M124.842 91.5607L123.97 91.2138L125.161 88.2205L126.032 88.5675L124.842 91.5607Z" fill="white"/>
<path d="M121.613 102.128C121.765 102.233 121.886 102.363 121.976 102.519C122.061 102.681 122.11 102.855 122.122 103.041C122.13 103.234 122.103 103.436 122.042 103.647C121.976 103.864 121.869 104.081 121.72 104.297C121.484 104.64 121.201 104.928 120.872 105.161C120.539 105.4 120.138 105.587 119.669 105.723L119.948 106.563C120.458 106.408 120.907 106.192 121.294 105.916C121.683 105.65 122.047 105.272 122.384 104.783C122.603 104.465 122.757 104.14 122.845 103.807C122.94 103.479 122.973 103.159 122.944 102.849C122.92 102.542 122.835 102.258 122.687 101.997C122.539 101.735 122.332 101.513 122.065 101.329C121.785 101.136 121.513 101.014 121.249 100.963C120.984 100.912 120.712 100.926 120.433 101.005C120.153 101.084 119.863 101.226 119.563 101.431C119.257 101.643 118.932 101.911 118.587 102.235C118.27 102.532 117.993 102.763 117.758 102.929C117.517 103.1 117.303 103.215 117.113 103.272C116.924 103.329 116.748 103.339 116.586 103.302C116.431 103.27 116.273 103.199 116.115 103.089C115.771 102.853 115.589 102.526 115.568 102.108C115.542 101.696 115.685 101.265 115.996 100.814C116.315 100.35 116.674 99.9925 117.072 99.7418C117.476 99.4954 117.957 99.307 118.516 99.1765L118.285 98.3283C117.647 98.479 117.088 98.7122 116.608 99.0281C116.13 99.3546 115.707 99.7848 115.339 100.319C115.111 100.649 114.945 100.985 114.842 101.326C114.738 101.667 114.701 101.993 114.73 102.303C114.755 102.621 114.846 102.918 115.002 103.194C115.158 103.471 115.379 103.707 115.665 103.904C116.18 104.259 116.706 104.36 117.243 104.205C117.776 104.057 118.382 103.668 119.059 103.039C119.389 102.723 119.677 102.476 119.921 102.297C120.172 102.124 120.395 102.005 120.588 101.942C120.788 101.883 120.969 101.872 121.131 101.908C121.294 101.945 121.454 102.018 121.613 102.128Z" fill="white"/>
<path fill-rule="evenodd" clip-rule="evenodd" d="M113.583 112.924C113.251 112.821 112.936 112.634 112.639 112.365C112.314 112.071 112.085 111.749 111.953 111.401C111.822 111.053 111.771 110.696 111.802 110.329C111.828 109.967 111.927 109.605 112.1 109.242C112.278 108.884 112.512 108.545 112.802 108.225L114.12 106.769L112.005 104.853L112.617 104.176L118.613 109.606L116.581 111.851C116.276 112.188 115.954 112.452 115.614 112.643C115.275 112.845 114.935 112.969 114.594 113.013C114.253 113.068 113.916 113.038 113.583 112.924ZM112.794 111.04C112.888 111.27 113.034 111.476 113.234 111.657C113.668 112.05 114.128 112.196 114.614 112.096C115.1 112.006 115.563 111.718 116.002 111.233L117.375 109.716L114.737 107.327L113.395 108.809C113.173 109.055 113.003 109.306 112.885 109.563C112.761 109.826 112.692 110.08 112.677 110.326C112.663 110.583 112.702 110.821 112.794 111.04Z" fill="white"/>
<path d="M108.095 119.866L112.545 116.058L107.279 109.899L102.784 113.744L103.326 114.378L107.126 111.127L108.969 113.283L105.609 116.157L106.151 116.791L109.511 113.916L111.309 116.019L107.553 119.232L108.095 119.866Z" fill="white"/>
<path d="M96.8102 119.857L95.9863 119.679C96.0473 119.385 96.1284 119.101 96.2296 118.827C96.3283 118.564 96.4558 118.311 96.6118 118.066C96.7679 117.822 96.9547 117.59 97.1722 117.371C97.3897 117.151 97.6551 116.943 97.9684 116.745C98.4645 116.432 98.979 116.236 99.5119 116.155C100.045 116.074 100.564 116.094 101.068 116.214C101.576 116.34 102.054 116.564 102.502 116.883C102.943 117.207 103.32 117.617 103.633 118.113C103.942 118.603 104.147 119.117 104.249 119.655C104.344 120.197 104.339 120.725 104.234 121.238C104.133 121.758 103.928 122.243 103.619 122.694C103.314 123.151 102.911 123.537 102.408 123.854C102.095 124.052 101.798 124.203 101.517 124.307C101.229 124.415 100.947 124.489 100.67 124.526C100.397 124.571 100.126 124.582 99.8565 124.56C99.5914 124.545 99.3226 124.509 99.05 124.453L99.2207 123.552C99.6873 123.641 100.146 123.666 100.596 123.628C101.04 123.595 101.497 123.43 101.967 123.133C102.346 122.895 102.653 122.6 102.889 122.251C103.118 121.906 103.273 121.53 103.354 121.123C103.429 120.72 103.425 120.302 103.344 119.87C103.261 119.448 103.094 119.038 102.843 118.639C102.592 118.241 102.292 117.91 101.943 117.646C101.588 117.387 101.213 117.204 100.817 117.097C100.415 116.995 100.007 116.97 99.5926 117.021C99.1758 117.083 98.778 117.234 98.3995 117.473C97.9295 117.769 97.5783 118.109 97.3459 118.493C97.1176 118.883 96.9391 119.338 96.8102 119.857Z" fill="white"/>
<path d="M97.2417 126.616L93.6769 119.322L92.854 119.724L96.4188 127.018L97.2417 126.616Z" fill="white"/>
<path fill-rule="evenodd" clip-rule="evenodd" d="M90.6475 129.522L89.8431 129.816L83.5751 123.416L84.4992 123.079L86.1254 124.765L90.2672 123.251L90.4347 120.909L91.3153 120.588L90.6475 129.522ZM90.2122 124.146L86.7444 125.414L89.8908 128.664L90.2122 124.146Z" fill="white"/>
<path d="M81.892 123.773L76.5355 124.904L76.7098 125.731L81.1718 124.789L82.6694 131.892L83.564 131.703L81.892 123.773Z" fill="white"/>
<path fill-rule="evenodd" clip-rule="evenodd" d="M63.7778 131.258C63.5691 130.759 63.4601 130.228 63.451 129.665C63.4419 129.102 63.5335 128.564 63.7258 128.051C63.9182 127.546 64.1926 127.098 64.549 126.706C64.9053 126.314 65.3362 125.999 65.8416 125.759C66.3471 125.527 66.9085 125.406 67.5257 125.396C68.1429 125.386 68.7079 125.488 69.2207 125.704C69.7258 125.92 70.1627 126.214 70.5315 126.586C70.9003 126.966 71.1891 127.405 71.3979 127.903C71.599 128.41 71.7041 128.944 71.7133 129.508C71.7224 130.071 71.6308 130.605 71.4383 131.11C71.246 131.623 70.9717 132.075 70.6153 132.467C70.259 132.858 69.828 133.17 69.3225 133.402C68.8171 133.642 68.2558 133.767 67.6386 133.777C67.0214 133.787 66.4602 133.684 65.9551 133.469C65.4423 133.253 65.0015 132.955 64.6326 132.575C64.2639 132.203 63.979 131.764 63.7778 131.258ZM64.6214 128.314C64.466 128.726 64.392 129.163 64.3996 129.626C64.4071 130.09 64.4952 130.524 64.6638 130.931C64.8247 131.337 65.0504 131.689 65.3407 131.985C65.6311 132.281 65.9744 132.515 66.3707 132.686C66.7593 132.857 67.1851 132.939 67.648 132.932C68.1109 132.924 68.5376 132.828 68.9282 132.645C69.3112 132.469 69.6391 132.228 69.912 131.922C70.1848 131.617 70.3989 131.258 70.5543 130.847C70.7021 130.443 70.7722 130.009 70.7647 129.546C70.7572 129.083 70.673 128.648 70.512 128.242C70.3434 127.836 70.1139 127.484 69.8236 127.188C69.5332 126.891 69.1938 126.658 68.8051 126.486C68.4088 126.315 67.9792 126.234 67.5163 126.241C67.0534 126.249 66.6304 126.34 66.2475 126.516C65.8569 126.7 65.5252 126.945 65.2523 127.25C64.9795 127.556 64.7691 127.911 64.6214 128.314Z" fill="white"/>
<path d="M54.2957 132.445L60.0592 133.318L61.2744 125.295L60.3692 125.158L59.8397 128.654L55.4971 127.995L55.3721 128.821L59.7147 129.479L59.2807 132.344L54.4225 131.608L54.2957 132.445Z" fill="white"/>
<path d="M51.4481 131.773L45.8545 130.159L46.0887 129.347L50.8037 130.707L51.6057 127.926L47.391 126.71L47.622 125.909L51.8366 127.125L52.8149 123.732L53.6935 123.986L51.4481 131.773Z" fill="white"/>
<path d="M37.7182 126.761L43.0782 129.121L46.3424 121.704L40.9294 119.32L40.5937 120.083L45.1698 122.098L44.0273 124.694L39.9808 122.913L39.6451 123.675L43.6916 125.457L42.5771 127.99L38.0539 125.998L37.7182 126.761Z" fill="white"/>
<path fill-rule="evenodd" clip-rule="evenodd" d="M33.8559 118.989L33.4952 114.855L34.4494 115.45L34.778 119.372L36.7456 120.6L38.4141 117.923L39.1912 118.408L34.8973 125.296L31.9362 123.449C31.5558 123.212 31.2454 122.95 31.0051 122.664C30.7582 122.373 30.5837 122.068 30.4818 121.75C30.3758 121.437 30.3435 121.117 30.3849 120.787C30.4223 120.464 30.537 120.149 30.7293 119.84C30.9092 119.552 31.1166 119.321 31.3516 119.149C31.5824 118.983 31.8363 118.868 32.1131 118.804C32.3793 118.742 32.662 118.727 32.961 118.759C33.2601 118.79 33.5584 118.867 33.8559 118.989ZM32.0466 119.787C31.8444 119.907 31.6737 120.079 31.5347 120.302C31.2648 120.735 31.2103 121.165 31.3714 121.594C31.5283 122.029 31.8855 122.42 32.443 122.768L34.568 124.093L36.31 121.298L34.1949 119.979C33.9391 119.82 33.6826 119.705 33.4253 119.636C33.1679 119.566 32.9238 119.542 32.6928 119.562C32.4577 119.588 32.2423 119.663 32.0466 119.787Z" fill="white"/>
<path d="M27.6893 117.999C27.5712 118.142 27.4308 118.251 27.2681 118.327C27.0994 118.398 26.9217 118.431 26.735 118.427C26.5423 118.417 26.3436 118.373 26.1388 118.294C25.9281 118.21 25.7216 118.084 25.5195 117.917C25.1984 117.651 24.9365 117.344 24.7337 116.996C24.525 116.643 24.3734 116.227 24.2788 115.748L23.4185 115.953C23.5281 116.474 23.7036 116.94 23.9452 117.35C24.1758 117.761 24.5201 118.156 24.9779 118.535C25.2751 118.781 25.5855 118.963 25.909 119.08C26.2275 119.204 26.5429 119.264 26.855 119.262C27.1623 119.266 27.4525 119.206 27.7257 119.081C27.999 118.957 28.2388 118.77 28.4454 118.52C28.6618 118.258 28.8071 117.998 28.8813 117.739C28.9554 117.479 28.9653 117.207 28.9109 116.922C28.8566 116.636 28.7404 116.335 28.5624 116.017C28.3785 115.695 28.1401 115.347 27.8474 114.975C27.5794 114.633 27.3733 114.337 27.2292 114.087C27.0791 113.833 26.9839 113.609 26.9437 113.415C26.9035 113.222 26.9088 113.046 26.9596 112.888C27.0055 112.735 27.0899 112.585 27.2129 112.436C27.4785 112.115 27.8202 111.962 28.2382 111.977C28.6502 111.988 29.0673 112.168 29.4894 112.517C29.9234 112.876 30.2478 113.265 30.4627 113.683C30.6727 114.107 30.8182 114.603 30.8993 115.171L31.7641 115.015C31.6699 114.366 31.4866 113.789 31.2141 113.283C30.9307 112.778 30.5393 112.319 30.0399 111.906C29.7308 111.65 29.411 111.455 29.0805 111.322C28.7501 111.189 28.4288 111.123 28.1166 111.125C27.7985 111.123 27.4949 111.187 27.2059 111.318C26.9169 111.45 26.6618 111.649 26.4404 111.917C26.0421 112.399 25.8962 112.914 26.0029 113.463C26.1037 114.007 26.4379 114.645 27.0056 115.375C27.2914 115.732 27.5123 116.04 27.6684 116.299C27.8195 116.564 27.9181 116.796 27.9643 116.995C28.0055 117.199 28.0007 117.38 27.9499 117.539C27.8991 117.697 27.8122 117.851 27.6893 117.999Z" fill="white"/>
<path d="M16.9234 103.807L17.664 103.235L19.6267 105.778L18.8861 106.35L16.9234 103.807Z" fill="white"/>
<path d="M9.45153 95.6149C9.2832 95.6921 9.10931 95.7294 8.92986 95.7268C8.7472 95.7171 8.57271 95.6698 8.40641 95.5847C8.23689 95.4927 8.07715 95.3664 7.9272 95.2059C7.77404 95.0384 7.64279 94.8354 7.53346 94.5968C7.35981 94.2179 7.25733 93.8277 7.22602 93.426C7.19148 93.0173 7.23571 92.5767 7.3587 92.1042L6.49505 91.9144C6.3671 92.4316 6.32273 92.9274 6.36195 93.4019C6.39093 93.8726 6.52923 94.3781 6.77683 94.9183C6.93762 95.2691 7.13814 95.5678 7.37841 95.8142C7.61166 96.0639 7.86931 96.2556 8.15135 96.3895C8.42639 96.5266 8.71398 96.5984 9.01413 96.6051C9.31428 96.6118 9.61165 96.5476 9.90624 96.4125C10.2148 96.271 10.4589 96.0996 10.6383 95.8985C10.8177 95.6973 10.945 95.4564 11.02 95.1757C11.0951 94.8951 11.1215 94.573 11.0993 94.2096C11.0738 93.8392 11.0102 93.4226 10.9084 92.9598C10.8158 92.5353 10.7587 92.1794 10.7374 91.892C10.7128 91.5976 10.7244 91.3545 10.7723 91.1627C10.8203 90.9709 10.9015 90.8148 11.016 90.6943C11.1236 90.5771 11.265 90.4782 11.4404 90.3978C11.8191 90.2241 12.1934 90.235 12.5631 90.4306C12.9296 90.6191 13.227 90.9625 13.4553 91.4606C13.6901 91.9728 13.8133 92.4639 13.8251 92.9341C13.8298 93.4074 13.7452 93.9174 13.5714 94.4641L14.418 94.7C14.6152 94.0746 14.701 93.4748 14.6755 92.9006C14.6398 92.3226 14.4869 91.739 14.2168 91.1496C14.0496 90.7848 13.8461 90.4705 13.6064 90.2068C13.3668 89.9431 13.1059 89.7444 12.8238 89.6105C12.5386 89.4696 12.2372 89.3955 11.9199 89.3883C11.6025 89.381 11.2859 89.4497 10.9703 89.5945C10.4022 89.855 10.0469 90.2558 9.90429 90.7966C9.75851 91.3305 9.78256 92.0497 9.97643 92.9542C10.0788 93.3998 10.1438 93.7732 10.1716 94.0747C10.1924 94.3793 10.1805 94.631 10.1358 94.8298C10.0841 95.0318 10.0009 95.1931 9.88638 95.3136C9.77183 95.434 9.62688 95.5345 9.45153 95.6149Z" fill="white"/>
<path fill-rule="evenodd" clip-rule="evenodd" d="M4.25188 83.1919C4.51123 82.9588 4.83266 82.7833 5.21619 82.6654C5.6366 82.5362 6.03031 82.504 6.39732 82.5688C6.76432 82.6337 7.09783 82.7734 7.39784 82.988C7.69558 83.1953 7.95643 83.4664 8.18037 83.8012C8.39694 84.1384 8.56868 84.5136 8.69559 84.9267L9.27347 86.8082L12.0061 85.9682L12.2747 86.8425L4.5303 89.2228L3.63968 86.3233C3.50597 85.888 3.44373 85.4751 3.45296 85.0847C3.45255 84.6892 3.52077 84.3331 3.65761 84.0165C3.78481 83.6948 3.9829 83.4199 4.25188 83.1919ZM6.27698 83.4779C6.03136 83.4403 5.77947 83.4612 5.52133 83.5406C4.96078 83.7129 4.5993 84.0339 4.43687 84.5037C4.26479 84.9684 4.27507 85.5143 4.4677 86.1414L5.06938 88.1003L8.47691 87.053L7.88882 85.1384C7.79138 84.8211 7.66243 84.5458 7.50198 84.3126C7.33926 84.0719 7.15582 83.882 6.95166 83.7429C6.73785 83.5987 6.51295 83.5103 6.27698 83.4779Z" fill="white"/>
<path d="M1.13836 74.7919L2.07538 80.5916L10.0961 79.2949L9.14978 73.4379L8.32479 73.5712L9.12478 78.5228L6.31754 78.9766L5.61015 74.5982L4.78516 74.7316L5.49256 79.11L2.75407 79.5527L1.96334 74.6585L1.13836 74.7919Z" fill="white"/>
<path d="M6.97365 65.2098L7.55022 64.5946C7.7709 64.7981 7.97255 65.0136 8.15519 65.2411C8.32993 65.461 8.48197 65.7008 8.6113 65.9604C8.74063 66.22 8.84339 66.4995 8.91959 66.7988C8.99579 67.0982 9.03806 67.4331 9.0464 67.8035C9.0596 68.3899 8.96376 68.9325 8.75889 69.4313C8.55402 69.93 8.27053 70.3648 7.90842 70.7359C7.5386 71.107 7.10148 71.4026 6.59705 71.6224C6.09244 71.8345 5.54701 71.9471 4.96075 71.9603C4.38221 71.9734 3.83611 71.8853 3.32248 71.6961C2.80867 71.4993 2.35869 71.2237 1.97254 70.8696C1.57868 70.5156 1.26811 70.0902 1.04083 69.5935C0.80583 69.097 0.681645 68.5517 0.66827 67.9575C0.659932 67.5871 0.683318 67.2546 0.738428 66.96C0.793365 66.6576 0.875822 66.3778 0.985799 66.1206C1.08806 65.8635 1.21776 65.6251 1.37489 65.4054C1.5243 65.1859 1.69318 64.9736 1.88151 64.7686L2.56669 65.3786C2.25052 65.7331 1.99282 66.1133 1.79357 66.5193C1.59416 66.9175 1.5007 67.3944 1.51321 67.95C1.52328 68.3976 1.61752 68.8124 1.79591 69.1944C1.97413 69.5686 2.21687 69.8952 2.52414 70.1739C2.83124 70.4449 3.19103 70.6568 3.60352 70.8097C4.00812 70.955 4.44569 71.0223 4.91624 71.0117C5.38679 71.0011 5.82475 70.914 6.23012 70.7505C6.63531 70.5792 6.9852 70.3513 7.27979 70.0668C7.57421 69.7745 7.80587 69.4373 7.97478 69.0552C8.1358 68.6655 8.21127 68.2469 8.2012 67.7994C8.18869 67.2438 8.07764 66.7676 7.86804 66.3709C7.65074 65.9743 7.3526 65.5873 6.97365 65.2098Z" fill="white"/>
<path d="M0.979025 62.1751L9.05541 62.8152L9.12763 61.9034L1.05124 61.2633L0.979025 62.1751Z" fill="white"/>
<path fill-rule="evenodd" clip-rule="evenodd" d="M1.83873 54.9693L1.99848 54.1276L10.7035 52.0216L10.52 52.9884L8.2394 53.5216L7.4169 57.8553L9.3413 59.1989L9.16644 60.1202L1.83873 54.9693ZM6.6765 57.3494L7.36516 53.7209L2.96255 54.7585L6.6765 57.3494Z" fill="white"/>
<path d="M11.2217 50.3936L12.9736 45.1912L12.1709 44.9207L10.7117 49.2543L3.81771 46.9313L3.52512 47.8002L11.2217 50.3936Z" fill="white"/>
<path fill-rule="evenodd" clip-rule="evenodd" d="M14.21 30.914C14.7437 30.9973 15.2527 31.1826 15.7371 31.4699C16.2215 31.7573 16.6315 32.1172 16.9672 32.5496C17.2962 32.978 17.5341 33.4466 17.6809 33.9554C17.8277 34.4642 17.8708 34.9967 17.8102 35.5529C17.7429 36.1052 17.5519 36.6468 17.2371 37.1779C16.9222 37.7089 16.5388 38.1364 16.0866 38.4603C15.6384 38.7776 15.1592 38.9958 14.6491 39.1149C14.1324 39.2301 13.6072 39.246 13.0736 39.1627C12.5373 39.0689 12.0269 38.8783 11.5425 38.5909C11.0581 38.3036 10.6514 37.9457 10.3224 37.5172C9.98673 37.0848 9.74549 36.6142 9.59866 36.1054C9.45183 35.5966 9.41205 35.0661 9.47933 34.5138C9.53998 33.9576 9.72771 33.414 10.0425 32.883C10.3573 32.352 10.7388 31.9278 11.1871 31.6105C11.6392 31.2866 12.1237 31.067 12.6404 30.9518C13.1505 30.8328 13.6737 30.8201 14.21 30.914ZM16.2738 33.1745C16.0047 32.8265 15.6711 32.5344 15.273 32.2982C14.8748 32.062 14.4586 31.9093 14.0243 31.8401C13.5939 31.7642 13.1765 31.7723 12.7721 31.8644C12.3677 31.9565 11.9889 32.1265 11.6355 32.3745C11.2862 32.6159 10.9934 32.9357 10.7573 33.334C10.5212 33.7322 10.3791 34.1459 10.3311 34.575C10.2803 34.9935 10.3135 35.3989 10.4306 35.7914C10.5477 36.1839 10.7408 36.5542 11.0099 36.9022C11.2762 37.2396 11.6085 37.5265 12.0066 37.7626C12.4047 37.9988 12.819 38.1549 13.2494 38.2307C13.6837 38.3 14.1031 38.2885 14.5075 38.1965C14.9119 38.1044 15.2888 37.9377 15.6381 37.6963C15.9914 37.4483 16.2861 37.1252 16.5223 36.7269C16.7584 36.3286 16.9018 35.9203 16.9526 35.5018C17.0006 35.0727 16.9661 34.6619 16.849 34.2694C16.7319 33.8769 16.5401 33.512 16.2738 33.1745Z" fill="white"/>
<path d="M17.9798 22.2824L14.2792 26.778L20.5333 31.9297L21.1145 31.2237L18.3895 28.979L21.1779 25.5917L20.5346 25.0618L17.7462 28.4491L15.5126 26.6092L18.632 22.8197L17.9798 22.2824Z" fill="white"/>
<path d="M20.0555 20.1913L24.3053 16.2313L24.8799 16.8482L21.2975 20.1863L23.2651 22.2992L26.4672 19.3155L27.0339 19.924L23.8317 22.9078L26.2322 25.4855L25.5647 26.1075L20.0555 20.1913Z" fill="white"/>
<path d="M31.3344 11.0227L26.5907 14.4206L31.2897 20.9851L36.0802 17.5537L35.5969 16.8785L31.547 19.7794L29.9023 17.4818L33.4835 14.9167L33.0002 14.2414L29.419 16.8066L27.8146 14.5653L31.8177 11.6979L31.3344 11.0227Z" fill="white"/>
<path fill-rule="evenodd" clip-rule="evenodd" d="M39.9812 11.6198L43.7153 13.4108L42.719 13.9285L39.1829 12.2173L37.1287 13.2847L38.5799 16.0793L37.7685 16.5009L34.0338 9.30896L37.1253 7.70252C37.5225 7.49616 37.9052 7.36251 38.2735 7.30158C38.6487 7.2371 38.9991 7.24204 39.3246 7.31641C39.6466 7.38393 39.9386 7.51924 40.2005 7.72232C40.459 7.91856 40.6717 8.17764 40.8389 8.49956C40.9954 8.80094 41.088 9.0964 41.1166 9.38594C41.1417 9.66863 41.1114 9.94528 41.0259 10.2159C40.9436 10.4761 40.8129 10.7266 40.6337 10.9676C40.4545 11.2086 40.237 11.426 39.9812 11.6198ZM40.2149 9.65879C40.2147 9.42404 40.1542 9.19023 40.0333 8.95735C39.7985 8.50528 39.4562 8.23957 39.0063 8.16022C38.5529 8.07401 38.0352 8.18213 37.4532 8.48456L35.2347 9.63735L36.7499 12.5552L38.9581 11.4078C39.2252 11.269 39.4539 11.1067 39.6443 10.9208C39.8347 10.7348 39.98 10.5376 40.0803 10.3289C40.1771 10.1133 40.2219 9.88998 40.2149 9.65879Z" fill="white"/>
<path d="M44.0627 6.86245C44.0016 6.68833 43.9806 6.51235 43.9996 6.33451C44.026 6.15413 44.0889 5.98533 44.1885 5.8281C44.2954 5.66833 44.4353 5.52141 44.6082 5.38734C44.7884 5.25073 45.0017 5.13912 45.2483 5.05252C45.64 4.91497 46.0364 4.8491 46.4377 4.85488C46.8462 4.85813 47.279 4.94245 47.7363 5.10786L48.0037 4.26824C47.5026 4.09381 47.0149 4.00427 46.5408 3.99964C46.0714 3.98521 45.5574 4.07605 44.9989 4.27218C44.6363 4.39953 44.3217 4.57112 44.0553 4.78692C43.7863 4.99548 43.5725 5.23355 43.4139 5.50115C43.2527 5.76149 43.155 6.04028 43.1208 6.33752C43.0867 6.63476 43.123 6.93574 43.23 7.24047C43.342 7.5597 43.4895 7.81757 43.6726 8.01409C43.8556 8.2106 44.0828 8.35899 44.3543 8.45925C44.6257 8.55951 44.9426 8.61528 45.3051 8.62655C45.6747 8.63527 46.0937 8.61038 46.562 8.55187C46.9914 8.49884 47.3497 8.47492 47.6366 8.48009C47.9308 8.48271 48.1708 8.5166 48.3566 8.58174C48.5424 8.64688 48.6898 8.74182 48.7987 8.86655C48.9051 8.98403 48.9902 9.13346 49.0538 9.31484C49.1913 9.70663 49.1461 10.077 48.9183 10.426C48.6977 10.7724 48.3299 11.036 47.815 11.2168C47.2855 11.4028 46.7871 11.48 46.3199 11.4485C45.85 11.4097 45.352 11.279 44.8258 11.0564L44.5142 11.8748C45.1163 12.1279 45.7032 12.2681 46.2749 12.2955C46.8514 12.3131 47.4442 12.2149 48.0535 12.001C48.4306 11.8685 48.761 11.6955 49.0444 11.4818C49.3279 11.2682 49.549 11.0276 49.7076 10.76C49.8735 10.4898 49.9746 10.1976 50.011 9.8833C50.0473 9.56901 50.0082 9.24861 49.8936 8.92212C49.6874 8.33444 49.3226 7.94504 48.7993 7.75394C48.2833 7.56028 47.5679 7.51814 46.6531 7.62751C46.2018 7.68818 45.8255 7.71847 45.524 7.71839C45.22 7.71106 44.9715 7.6761 44.7784 7.6135C44.5828 7.54365 44.4306 7.44636 44.3216 7.32163C44.2127 7.1969 44.1264 7.04384 44.0627 6.86245Z" fill="white"/>
<path d="M61.7707 4.90461L61.8738 5.83303L58.6884 6.18707L58.5853 5.25866L61.7707 4.90461Z" fill="white"/>
</svg>
