<svg width="0" height="0" class="hidden" id="sprite">
  <symbol xmlns="http://www.w3.org/2000/svg" viewBox="-0.13 0 32.13 32" id="excel">
    <path d="M20 2H9.333A1.333 1.333 0 008 3.333V9l12 7 6 2.532L32 16V9z" fill="#21a366"></path>
    <path fill="#107c41" d="M8 9h12v7H8z"></path>
    <path d="M30.667 2H20v7h12V3.333A1.333 1.333 0 0030.667 2z" fill="#33c481"></path>
    <path d="M20 16H8v12.667A1.333 1.333 0 009.333 30h21.334A1.333 1.333 0 0032 28.667V23z" fill="#185c37"></path>
    <path fill="#107c41" d="M20 16h12v7H20z"></path>
    <path d="M16.667 7H8v19h8.667A1.337 1.337 0 0018 24.667V8.333A1.337 1.337 0 0016.667 7z" opacity=".1"></path>
    <path d="M15.667 8H8v19h7.667A1.337 1.337 0 0017 25.667V9.333A1.337 1.337 0 0015.667 8z" opacity=".2"></path>
    <path d="M15.667 8H8v17h7.667A1.337 1.337 0 0017 23.667V9.333A1.337 1.337 0 0015.667 8z" opacity=".2"></path>
    <path d="M14.667 8H8v17h6.667A1.337 1.337 0 0016 23.667V9.333A1.337 1.337 0 0014.667 8z" opacity=".2"></path>
    <path d="M1.333 8h13.334A1.333 1.333 0 0116 9.333v13.334A1.333 1.333 0 0114.667 24H1.333A1.333 1.333 0 010 22.667V9.333A1.333 1.333 0 011.333 8z" fill="#107c41"></path>
    <path d="M3.533 21l3.236-5.014L3.805 11H6.19l1.618 3.187q.223.453.307.676h.021q.16-.362.335-.704L10.2 11h2.189l-3.04 4.958L12.466 21h-2.33l-1.869-3.5a2.922 2.922 0 01-.223-.468h-.028a2.207 2.207 0 01-.216.453L5.877 21z" fill="#fff"></path>
    <path fill="none" d="M0 0h32v32H0z"></path>
  </symbol>
  <symbol xmlns="http://www.w3.org/2000/svg" viewBox="0 0 200 300" id="figma">
    <path d="M50 300c27.6 0 50-22.4 50-50v-50H50c-27.6 0-50 22.4-50 50s22.4 50 50 50z" fill="#0acf83"></path>
    <path d="M0 150c0-27.6 22.4-50 50-50h50v100H50c-27.6 0-50-22.4-50-50z" fill="#a259ff"></path>
    <path d="M0 50C0 22.4 22.4 0 50 0h50v100H50C22.4 100 0 77.6 0 50z" fill="#f24e1e"></path>
    <path d="M100 0h50c27.6 0 50 22.4 50 50s-22.4 50-50 50h-50z" fill="#ff7262"></path>
    <path d="M200 150c0 27.6-22.4 50-50 50s-50-22.4-50-50 22.4-50 50-50 50 22.4 50 50z" fill="#1abcfe"></path>
  </symbol>
  <symbol xmlns="http://www.w3.org/2000/svg" viewBox="0 0 999.937 999.937" id="github">
    <path d="M0 499.968c0-138.012 48.825-255.843 146.476-353.493C244.125 48.825 361.956 0 499.969 0 637.98 0 755.811 48.825 853.462 146.475c97.649 97.65 146.475 215.481 146.475 353.493s-48.825 255.843-146.475 353.493c-97.65 97.65-215.481 146.476-353.493 146.476-138.013 0-255.844-48.825-353.493-146.476C48.825 755.812 0 637.979 0 499.968zm54.684 0c0 122.389 43.617 227.199 130.851 314.434 87.234 87.233 192.045 130.851 314.434 130.851 122.388 0 227.199-43.617 314.433-130.851 87.234-87.234 130.851-192.045 130.851-314.434 0-122.388-43.616-227.199-130.851-314.433C727.168 98.301 622.356 54.684 499.969 54.684c-122.389 0-227.199 43.617-314.434 130.851C98.301 272.769 54.684 377.58 54.684 499.968zm140.617 107.415c-2.604-2.604-2.604-5.208 0-7.812 5.207-5.208 11.718-7.161 19.529-5.859 7.812 1.302 12.369 2.604 13.671 3.906 9.114 3.906 19.205 12.694 30.271 26.366 11.066 13.671 19.855 23.11 26.366 28.318 31.248 26.04 63.146 27.993 95.696 5.859 2.604-9.114 6.836-16.926 12.694-23.437 5.858-6.51 11.393-11.066 16.601-13.671 5.209-2.604 14.323-6.51 27.343-11.718-42.967-3.906-77.795-11.393-104.486-22.46s-47.849-25.063-63.473-41.989c-20.832-23.436-33.527-54.033-38.084-91.791-4.558-37.758-1.628-72.261 8.789-103.509 7.812-19.53 18.879-37.106 33.2-52.731-10.416-32.55-8.463-69.657 5.859-111.321 41.664 2.604 79.422 16.926 113.274 42.966 65.1-16.926 132.804-17.577 203.111-1.953 9.114-6.51 23.111-14.647 41.989-24.413 18.879-9.765 42.641-15.299 71.285-16.601 5.208 14.322 8.789 31.248 10.742 50.778s.977 37.758-2.929 54.684c29.945 31.248 45.569 72.912 46.871 124.992 0 41.664-7.16 76.167-21.482 103.509s-39.711 50.127-76.167 68.354c-24.738 11.719-57.288 18.879-97.65 21.483 18.229 9.114 31.574 18.554 40.037 28.319 8.464 9.765 13.997 25.063 16.602 45.895v61.521l1.952 59.566c3.906 6.511 8.464 12.044 13.672 16.602 5.208 4.557 9.765 7.812 13.671 9.765 3.905 1.953 5.208 4.883 3.905 8.789-1.302 3.906-6.51 5.859-15.623 5.859-22.135 0-39.711-7.812-52.731-23.437-3.906-6.51-5.859-14.321-5.859-23.436v-93.744c0-10.416-2.604-17.903-7.812-22.46-5.208-4.558-10.416-7.487-15.624-8.789v123.039c0 22.134 2.604 36.456 7.812 42.966s8.463 13.021 9.766 19.53c1.302 1.302.325 2.278-2.93 2.929-3.254.65-8.788-.325-16.601-2.929-16.926-3.906-28.644-12.695-35.154-26.366-6.51-13.671-9.765-28.319-9.765-43.943V667.926H488.25v121.086c0 15.624-3.256 30.598-9.766 44.919-9.113 18.229-26.04 27.993-50.777 29.295-3.906-1.302-5.859-2.604-5.859-3.905 1.302-1.303 5.208-7.812 11.718-19.53 1.302-2.604 2.93-7.812 4.883-15.624 1.954-7.812 2.93-16.926 2.93-27.342v-123.04c-5.208 1.302-10.091 4.231-14.648 8.789s-6.836 12.044-6.836 22.46v93.744c0 9.113-1.953 16.926-5.859 23.436-11.718 15.624-29.295 23.437-52.73 23.437-9.114 0-14.322-1.953-15.624-5.859-1.303-2.604-.977-4.883.977-6.836s4.883-4.232 8.789-6.836c3.906-2.604 6.51-4.558 7.812-5.859 5.208-3.906 9.113-9.114 11.718-15.624 3.906-5.208 4.882-18.879 2.929-41.013s-2.279-36.456-.977-42.966c-33.853 11.718-68.355 5.858-103.51-17.577-10.416-10.416-20.832-25.39-31.248-44.919-7.812-14.323-23.436-31.249-46.871-50.779z"></path>
  </symbol>
  <symbol xmlns="http://www.w3.org/2000/svg" preserveAspectRatio="xMinYMin meet" viewBox="0 0 256 566" id="gulp">
    <path d="M197.28 548.749l5.427-90.43 14.985-25.58s-34.106 13.952-91.205 13.952c-57.1 0-90.689-13.694-90.689-13.694l16.794 27.904 5.941 87.848c0 9.418 31.059 17.052 69.374 17.052 38.313 0 69.373-7.634 69.373-17.052m-17.119-422.295l11.391-45.025 63.081-66.376L238.007.892l-66.784 70.707-13.226 53.793a886.14 886.14 0 00-29.873-.497c-70.336 0-127.355 8.016-127.355 17.902 0 9.887 57.019 17.902 127.355 17.902 70.335 0 127.353-8.015 127.353-17.902 0-7.28-30.924-13.546-75.316-16.343" fill="#D34A47"></path>
    <path d="M173.535 151.669s-2.467.553-9.724.584c-7.259.03-12.413-.047-14.466-1.917-.552-.502-.854-1.499-.851-2.174.006-1.285.918-2.042 2.08-2.516l1.099 1.724c-.478.165-.751.36-.752.568-.004.976 7.422 1.644 13.102 1.572 5.681-.07 12.545-.538 12.551-1.5 0-.291-.519-.565-1.422-.781l1.094-1.712c1.472.457 2.757 1.34 2.754 2.868-.014 2.598-3.32 2.993-5.465 3.284" fill="#FFF"></path>
    <path d="M254.509 15.184c1.586-1.832-.821-6.518-5.376-10.465C244.576.774 239.596-.94 238.007.892c-1.587 1.832.821 6.518 5.378 10.463 4.555 3.946 9.537 5.662 11.124 3.829m-60.263 312.681c-1.495-14.384 31.462-35.216 23.004-35.883-18.208 1.041-27.27 21.338-36.431 42.596-3.357 7.791-14.844 41.013-22.378 36.923-7.532-4.088 9.765-31.407 14.613-47.631-5.594 4.102-26.109 20.041-31.396 5.114-8.5 7.219-26.663 11.13-24.614-7.833-4.522 8.01-14.671 19.193-26.853 14.546-15.998-6.101 9.27-57.062 15.553-54.491 6.284 2.57-1.268 14.179-3.246 18.687-4.35 9.921-9.375 22.393-6.018 24.946 5.751 4.374 21.401-16.547 21.749-17.007 2.927-3.867 11.266-29.166 17.987-26.261 6.721 2.905-16.764 36.308-7.983 42.937 1.771 1.338 9.017-.825 13.425-5.594 2.852-3.085 1.871-9.918 11.378-32.59 9.507-22.671 17.98-50.905 24.5-48.754 6.52 2.15 1.146 16.641-1.193 22.043-10.976 25.354-29.956 67.241-21.005 64.07 8.951-3.17 13.612-3.356 22.377-13.613 8.765-10.257 8.361-27.152 14.203-26.793 5.844.36 4.863 5.777 3.446 9.902 5.75-6.58 27.256-20.438 32.448-6.713 6.15 16.249-30.769 39.72-21.564 38.523 8.975-1.167 23.515-10.376 29.723-18.749l17.088-153.626s-17.195 14.23-126.589 14.23c-109.395 0-124.811-13.934-124.811-13.934l14.548 140.224c7.722-21.947 26.059-66.339 54.963-64.849 13.148.678 30.7 25.995 15.665 26.853-6.364.362-7.01-12.637-14.546-14.546-5.438-1.378-13.009 3.043-17.902 7.833-9.758 9.55-30.745 47.229-27.972 66.014 3.533 23.949 33.048-8.322 38.042-17.903 3.517-6.749 5.893-26.745 13.585-24.647 7.693 2.098-.671 22.734-6.247 40.979-6.264 20.487-9.557 42.098-17.408 39.612-7.852-2.484 4.938-28.932 4.475-33.566-7.38 6.809-20.976 24.047-38.37 15.515l9.035 87.078s24.013 18.973 96.35 18.973c72.337 0 97.239-18.677 97.239-18.677l11.219-100.857c-9.179 8.938-38.229 24.81-40.089 6.919" fill="#D34A47"></path>
  </symbol>
  <symbol fill="none" xmlns="http://www.w3.org/2000/svg" viewBox="0 0 124 141.532" id="html">
    <path d="M10.383 126.894L0 0l124 .255-10.979 126.639-50.553 14.638z" fill="#e34f26"></path>
    <path d="M62.468 129.277V12.085l51.064.17-9.106 104.851z" fill="#ef652a"></path>
    <path d="M99.49 41.362l1.446-15.49H22.383l4.34 47.49h54.213L78.81 93.617l-17.362 4.68-17.617-5.106-.936-12.085H27.319l2.128 24.681 32 8.936 32.255-8.936 4.34-48.17H41.107L39.49 41.362z" fill="#fff"></path>
  </symbol>
  <symbol xmlns="http://www.w3.org/2000/svg" viewBox="0 0 2499.9 2500" id="instagram">
    <defs>
      <radialGradient id="a" cx="332.14" cy="2511.81" r="3263.54" gradientUnits="userSpaceOnUse">
        <stop offset=".09" stop-color="#fa8f21"></stop>
        <stop offset=".78" stop-color="#d82d7e"></stop>
      </radialGradient>
      <radialGradient id="b" cx="1516.14" cy="2623.81" r="2572.12" gradientUnits="userSpaceOnUse">
        <stop offset=".64" stop-color="#8c3aaa" stop-opacity="0"></stop>
        <stop offset="1" stop-color="#8c3aaa"></stop>
      </radialGradient>
    </defs>
    <path d="M833.4 1250c0-230.11 186.49-416.7 416.6-416.7s416.7 186.59 416.7 416.7-186.59 416.7-416.7 416.7-416.6-186.59-416.6-416.7m-225.26 0c0 354.5 287.36 641.86 641.86 641.86s641.86-287.36 641.86-641.86S1604.5 608.14 1250 608.14 608.14 895.5 608.14 1250m1159.13-667.31a150 150 0 10150.06-149.94h-.06a150.07 150.07 0 00-150 149.94M745 2267.47c-121.87-5.55-188.11-25.85-232.13-43-58.36-22.72-100-49.78-143.78-93.5s-70.88-85.32-93.5-143.68c-17.16-44-37.46-110.26-43-232.13-6.06-131.76-7.27-171.34-7.27-505.15s1.31-373.28 7.27-505.15c5.55-121.87 26-188 43-232.13 22.72-58.36 49.78-100 93.5-143.78s85.32-70.88 143.78-93.5c44-17.16 110.26-37.46 232.13-43 131.76-6.06 171.34-7.27 505-7.27s373.28 1.31 505.15 7.27c121.87 5.55 188 26 232.13 43 58.36 22.62 100 49.78 143.78 93.5s70.78 85.42 93.5 143.78c17.16 44 37.46 110.26 43 232.13 6.06 131.87 7.27 171.34 7.27 505.15s-1.21 373.28-7.27 505.15c-5.55 121.87-25.95 188.11-43 232.13-22.72 58.36-49.78 100-93.5 143.68s-85.42 70.78-143.78 93.5c-44 17.16-110.26 37.46-232.13 43-131.76 6.06-171.34 7.27-505.15 7.27s-373.28-1.21-505-7.27M734.65 7.57c-133.07 6.06-224 27.16-303.41 58.06C349 97.54 279.38 140.35 209.81 209.81S97.54 349 65.63 431.24c-30.9 79.46-52 170.34-58.06 303.41C1.41 867.93 0 910.54 0 1250s1.41 382.07 7.57 515.35c6.06 133.08 27.16 223.95 58.06 303.41 31.91 82.19 74.62 152 144.18 221.43S349 2402.37 431.24 2434.37c79.56 30.9 170.34 52 303.41 58.06C868 2498.49 910.54 2500 1250 2500s382.07-1.41 515.35-7.57c133.08-6.06 223.95-27.16 303.41-58.06 82.19-32 151.86-74.72 221.43-144.18s112.18-139.24 144.18-221.43c30.9-79.46 52.1-170.34 58.06-303.41 6.06-133.38 7.47-175.89 7.47-515.35s-1.41-382.07-7.47-515.35c-6.06-133.08-27.16-224-58.06-303.41-32-82.19-74.72-151.86-144.18-221.43S2150.95 97.54 2068.86 65.63c-79.56-30.9-170.44-52.1-303.41-58.06C1632.17 1.51 1589.56 0 1250.1 0S868 1.41 734.65 7.57" fill="url(#a)"></path>
    <path d="M833.4 1250c0-230.11 186.49-416.7 416.6-416.7s416.7 186.59 416.7 416.7-186.59 416.7-416.7 416.7-416.6-186.59-416.6-416.7m-225.26 0c0 354.5 287.36 641.86 641.86 641.86s641.86-287.36 641.86-641.86S1604.5 608.14 1250 608.14 608.14 895.5 608.14 1250m1159.13-667.31a150 150 0 10150.06-149.94h-.06a150.07 150.07 0 00-150 149.94M745 2267.47c-121.87-5.55-188.11-25.85-232.13-43-58.36-22.72-100-49.78-143.78-93.5s-70.88-85.32-93.5-143.68c-17.16-44-37.46-110.26-43-232.13-6.06-131.76-7.27-171.34-7.27-505.15s1.31-373.28 7.27-505.15c5.55-121.87 26-188 43-232.13 22.72-58.36 49.78-100 93.5-143.78s85.32-70.88 143.78-93.5c44-17.16 110.26-37.46 232.13-43 131.76-6.06 171.34-7.27 505-7.27s373.28 1.31 505.15 7.27c121.87 5.55 188 26 232.13 43 58.36 22.62 100 49.78 143.78 93.5s70.78 85.42 93.5 143.78c17.16 44 37.46 110.26 43 232.13 6.06 131.87 7.27 171.34 7.27 505.15s-1.21 373.28-7.27 505.15c-5.55 121.87-25.95 188.11-43 232.13-22.72 58.36-49.78 100-93.5 143.68s-85.42 70.78-143.78 93.5c-44 17.16-110.26 37.46-232.13 43-131.76 6.06-171.34 7.27-505.15 7.27s-373.28-1.21-505-7.27M734.65 7.57c-133.07 6.06-224 27.16-303.41 58.06C349 97.54 279.38 140.35 209.81 209.81S97.54 349 65.63 431.24c-30.9 79.46-52 170.34-58.06 303.41C1.41 867.93 0 910.54 0 1250s1.41 382.07 7.57 515.35c6.06 133.08 27.16 223.95 58.06 303.41 31.91 82.19 74.62 152 144.18 221.43S349 2402.37 431.24 2434.37c79.56 30.9 170.34 52 303.41 58.06C868 2498.49 910.54 2500 1250 2500s382.07-1.41 515.35-7.57c133.08-6.06 223.95-27.16 303.41-58.06 82.19-32 151.86-74.72 221.43-144.18s112.18-139.24 144.18-221.43c30.9-79.46 52.1-170.34 58.06-303.41 6.06-133.38 7.47-175.89 7.47-515.35s-1.41-382.07-7.47-515.35c-6.06-133.08-27.16-224-58.06-303.41-32-82.19-74.72-151.86-144.18-221.43S2150.95 97.54 2068.86 65.63c-79.56-30.9-170.44-52.1-303.41-58.06C1632.17 1.51 1589.56 0 1250.1 0S868 1.41 734.65 7.57" fill="url(#b)"></path>
  </symbol>
  <symbol xmlns="http://www.w3.org/2000/svg" viewBox="0 0 1052 1052" id="javascript">
    <path fill="#f0db4f" d="M0 0h1052v1052H0z"></path>
    <path d="M965.9 801.1c-7.7-48-39-88.3-131.7-125.9-32.2-14.8-68.1-25.399-78.8-49.8-3.8-14.2-4.3-22.2-1.9-30.8 6.9-27.9 40.2-36.6 66.6-28.6 17 5.7 33.1 18.801 42.8 39.7 45.4-29.399 45.3-29.2 77-49.399-11.6-18-17.8-26.301-25.4-34-27.3-30.5-64.5-46.2-124-45-10.3 1.3-20.699 2.699-31 4-29.699 7.5-58 23.1-74.6 44-49.8 56.5-35.6 155.399 25 196.1 59.7 44.8 147.4 55 158.6 96.9 10.9 51.3-37.699 67.899-86 62-35.6-7.4-55.399-25.5-76.8-58.4-39.399 22.8-39.399 22.8-79.899 46.1 9.6 21 19.699 30.5 35.8 48.7 76.2 77.3 266.899 73.5 301.1-43.5 1.399-4.001 10.6-30.801 3.199-72.101zm-394-317.6h-98.4c0 85-.399 169.4-.399 254.4 0 54.1 2.8 103.7-6 118.9-14.4 29.899-51.7 26.2-68.7 20.399-17.3-8.5-26.1-20.6-36.3-37.699-2.8-4.9-4.9-8.7-5.601-9-26.699 16.3-53.3 32.699-80 49 13.301 27.3 32.9 51 58 66.399 37.5 22.5 87.9 29.4 140.601 17.3 34.3-10 63.899-30.699 79.399-62.199 22.4-41.3 17.6-91.3 17.4-146.6.5-90.2 0-180.4 0-270.9z" fill="#323330"></path>
  </symbol>
  <symbol xmlns="http://www.w3.org/2000/svg" viewBox="0 0 512 116" id="jquery">
    <g fill="none" fill-rule="evenodd">
      <path d="M489.718 8.646l21.42.118s-39.824 53.964-43.076 58.362c-1.056 1.424-2.66 2.96-3.474 4.864-2.057 4.786-4.169 15.285-4.169 15.285l-19.599.098s3.05-10.944 2.924-16.773c-.11-5.092-2.71-10.178-4.168-15.285-1.474-5.17-3.475-15.286-3.475-15.286h20.15l2.779 11.117 30.688-42.5" fill="#1A1918"></path>
      <path d="M449.157 20.027c3.953 2.383 6.379 15.529 6.379 15.529s-20.684.305-31.94.305h-9.727l-11.812 51.414h-18.064s11.242-55.874 13.896-66.004c.86-3.28 5.892-2.717 14.389-2.717h13.569c8.762 0 19.003-1.119 23.31 1.473m-84.097 25.04s.563-3.3-1.91-7.122c-2.113-3.258-4.064-4.016-9.623-4.19-15.695-.493-15.39 11.138-15.39 11.138l26.923.174zm17.022-13.32c2.3 8.297-2.084 27.792-2.084 27.792s-22.894-.382-35.434 0c-3.899.119-8.566-.424-9.727 1.39-1.633 2.542.597 6.455 2.487 8.108 2.175 1.903 6.412 2.12 7.935 2.313 10.178 1.293 31.48.334 31.48.334l-3.69 16.34s-30.103 1.51-45.16-2.084c-2.973-.708-5.76-2.139-7.643-4.168-.514-.555-.96-1.312-1.446-1.966-.388-.522-1.52-2.237-2.028-3.593-3.439-9.164.403-26.72 4.169-36.128.437-1.09.986-2.473 1.564-3.648.722-1.465 1.333-3.119 1.91-3.995.388-.604.869-.993 1.272-1.563.465-.674 1.006-1.327 1.507-1.91 1.39-1.612 2.967-2.752 4.864-4.168 6.273-4.698 17.626-8.345 31.265-6.949 5.135.528 12.89 2.362 16.675 7.643 1.014 1.41 1.515 4.21 2.084 6.253zM299.229 18.49l17.516-.103s-9.762 46.307-14.737 68.888h-20.15c-14.082 0-26.623 1.744-31.959-8.338-5.176-9.789-.236-25.887 2.084-36.824 1.64-7.74 5.094-23.56 5.094-23.56l18.148-.166s-5.128 24.63-7.262 36.928c-.764 4.405-2.34 8.553-.694 11.81 1.563 3.1 3.752 3.322 10.421 3.475 2.113.05 9.033 0 9.033 0l12.506-52.11m-81.985 33.35c1.834-6.516 4.509-13.582 4.169-19.454-.368-6.28-5.634-11.998-9.032-13.2-10.234-3.613-19.815 1.438-23.623 5.558-4.926 5.336-6.594 11.569-8.338 20.15-1.298 6.37-2.362 13.095 0 18.063 4.182 8.783 17.224 6.865 31.266 6.949 2.084-5.586 3.807-11.86 5.558-18.066zm24.318-25.706c2 14.548-5.676 30.606-10.964 44.57 5.392.487 10.117-.075 10.457.327.354.521-3.614 16.668-4.997 16.71-4.279.111-18.459.229-24.372.229-19.295 0-37.345 1.257-46.55-8.337-3.738-3.898-6.323-10.583-6.949-15.286-1.042-7.851.264-16.495 2.085-23.622 1.647-6.435 3.758-12.507 6.948-18.066C175.328 8.507 189.432-1.998 213.075.427c4.586.472 11.172 2.48 15.286 4.863.284.167 1.279.959 1.507 1.098 5.559 3.537 10.624 11.978 11.694 19.746zm-85.369-7.56c-1.167 5.315-2.334 11.34-3.564 16.592h-19.454c1.507-5.822 2.661-11.61 4.169-16.675 6.225 0 12.013.083 18.85.083M132.48 40.03h18.76c-2.453 13.576-7.31 35.475-11.117 50.719-2.383 9.54-3.974 16.501-10.422 21.538-.577.452-.91.237-1.39.695-1.188 1.133-6.684 2.447-9.726 2.779-4.947.536-10.54.07-16.62-.055 1.591-5.815 3.391-12.798 4.809-18.01 14.82 1.794 15.195-12.214 18.064-25.706 1.66-7.796 6.691-28.834 7.642-31.96" fill="#1A1918"></path>
      <g fill="#21609B">
        <path d="M88.708 75.464l-.402 1.042c-6.85 13.34-18.989 21.524-36.303 21.885-8.094.167-15.806-1.91-20.844-4.168C20.287 89.338 11.142 80.279 6.148 70.6c-7.164-13.875-8.456-33.176 6.44-47.592.23 0-1.807 3.126-1.577 3.126l-.41 1.334C-.133 61.074 32.938 89.874 65.086 86.58c7.726-.792 17.578-5.023 23.622-11.116"></path>
        <path d="M69.254 61.568c8.088.055 16.536-3.725 21.539-9.032-4.377 11.11-17.05 18.251-34.044 15.98-14.23-1.904-27.785-16.223-29.181-30.571-1.021-10.442 2.618-16.674 8.615-24.234-2.084 3.954-2.863 7.003-3.057 8.948-2.278 22.588 18.044 38.79 36.128 38.909"></path>
        <path d="M89.98 33.512c-1.257 2.884-8.496 8.33-11.693 9.011-12.659 2.697-20.766-3.306-25.013-10.137-.631-1.02-1.798-3.806-2.007-4.515-1.647-5.6-.89-14.07 4.023-18.454-1.48 4.169-1.696 9.011-.917 12.159.472 1.903 1.91 5.226 3.349 7.316 2.618 3.807 4.279 4.732 7.642 6.754 1.515.91 3.14 1.64 3.842 1.84 3.189.939 9.922 3.412 20.775-3.974"></path>
      </g>
    </g>
  </symbol>
  <symbol xmlns="http://www.w3.org/2000/svg" viewBox="7.025 7.025 497.951 497.95" id="linkedin">
    <linearGradient id="a" gradientUnits="userSpaceOnUse" x1="-974.482" y1="1306.773" x2="-622.378" y2="1658.877" gradientTransform="translate(1054.43 -1226.825)">
      <stop offset="0" stop-color="#2489be"></stop>
      <stop offset="1" stop-color="#0575b3"></stop>
    </linearGradient>
    <path d="M256 7.025C118.494 7.025 7.025 118.494 7.025 256S118.494 504.975 256 504.975 504.976 393.506 504.976 256C504.975 118.494 393.504 7.025 256 7.025zm-66.427 369.343h-54.665V199.761h54.665v176.607zM161.98 176.633c-17.853 0-32.326-14.591-32.326-32.587 0-17.998 14.475-32.588 32.326-32.588s32.324 14.59 32.324 32.588c.001 17.997-14.472 32.587-32.324 32.587zm232.45 199.735h-54.4v-92.704c0-25.426-9.658-39.619-29.763-39.619-21.881 0-33.312 14.782-33.312 39.619v92.704h-52.43V199.761h52.43v23.786s15.771-29.173 53.219-29.173c37.449 0 64.257 22.866 64.257 70.169l-.001 111.825z" fill="url(#a)"></path>
  </symbol>
  <symbol xmlns="http://www.w3.org/2000/svg" xmlns:xlink="http://www.w3.org/1999/xlink" viewBox="0 0 78.799 96" id="office">
    <linearGradient id="b" gradientUnits="userSpaceOnUse" x1="16.942" x2="85.671" y1="83.36" y2="89.583">
      <stop offset="0" stop-color="#f32b44"></stop>
      <stop offset=".6" stop-color="#a4070a"></stop>
    </linearGradient>
    <linearGradient id="a">
      <stop offset="0" stop-opacity=".4"></stop>
      <stop offset="1" stop-opacity="0"></stop>
    </linearGradient>
    <linearGradient id="c" gradientUnits="userSpaceOnUse" x1="63.515" x2="33.003" xlink:href="#a" y1="87.298" y2="84.535"></linearGradient>
    <linearGradient id="d" gradientUnits="userSpaceOnUse" x1="44.738" x2="-5.901" y1="-3.312" y2="71.527">
      <stop offset="0" stop-color="#800600"></stop>
      <stop offset=".6" stop-color="#c72127"></stop>
      <stop offset=".728" stop-color="#c13959"></stop>
      <stop offset=".847" stop-color="#bc4b81"></stop>
      <stop offset=".942" stop-color="#b95799"></stop>
      <stop offset="1" stop-color="#b85ba2"></stop>
    </linearGradient>
    <linearGradient id="e" gradientUnits="userSpaceOnUse" x1="45.823" x2="35.099" xlink:href="#a" y1="-4.81" y2="11.039"></linearGradient>
    <linearGradient id="f" gradientUnits="userSpaceOnUse" x1="61.486" x2="61.486" y1="-4.887" y2="88.781">
      <stop offset="0" stop-color="#ffb900"></stop>
      <stop offset=".166" stop-color="#ef8400"></stop>
      <stop offset=".313" stop-color="#e25c01"></stop>
      <stop offset=".429" stop-color="#db4401"></stop>
      <stop offset=".5" stop-color="#d83b01"></stop>
    </linearGradient>
    <path d="M19.143 75.558c-2.724 0-4.945 2.121-4.945 4.753 0 1.789 1.031 3.322 2.565 4.14l19.118 10.246A10.11 10.11 0 0040.85 96c1.164 0 2.275-.204 3.306-.562l6.531-1.814V75.533c.027.025-31.519.025-31.545.025z" fill="url(#b)"></path>
    <path d="M19.143 75.558c-2.724 0-4.945 2.121-4.945 4.753 0 1.789 1.031 3.322 2.565 4.14l19.118 10.246A10.11 10.11 0 0040.85 96c1.164 0 2.275-.204 3.306-.562l6.531-1.814V75.533c.027.025-31.519.025-31.545.025z" fill="url(#c)"></path>
    <path d="M43.736.383A9.968 9.968 0 0040.959 0c-1.56 0-3.12.307-4.522 1.022-.29.128-31.096 16.864-31.096 16.864-.423.205-.82.46-1.19.716-.052.025-.079.051-.132.077-.238.178-.45.357-.687.536-.106.077-.212.18-.291.256a4.7 4.7 0 00-.37.383c-.37.383-1.005 1.2-1.005 1.2A9.15 9.15 0 000 26.345v44.46c0 2.633 2.221 4.754 4.945 4.754.687 0 1.322-.128 1.904-.384l8.805-4.778c1.586-.766 2.856-2.07 3.517-3.68.158-.332.29-.74.37-1.15.026-.102.053-.23.053-.332 0-.05.026-.127.026-.178.027-.18.053-.384.053-.562 0-.154.027-.282.027-.435V33.013c0-2.07.925-3.935 2.38-5.238 0 0-.688.613 0 0 .687-.613 1.586-1.15 2.644-1.507 1.057-.384 26.072-9.122 26.072-9.122V2.402z" fill="url(#d)"></path>
    <path d="M43.736.383A9.968 9.968 0 0040.959 0c-1.56 0-3.12.307-4.522 1.022-.29.128-31.096 16.864-31.096 16.864-.423.205-.82.46-1.19.716-.052.025-.079.051-.132.077-.238.178-.45.357-.687.536-.106.077-.212.18-.291.256a4.7 4.7 0 00-.37.383c-.37.383-1.005 1.2-1.005 1.2A9.15 9.15 0 000 26.345v44.46c0 2.633 2.221 4.754 4.945 4.754.687 0 1.322-.128 1.904-.384l8.805-4.778c1.586-.766 2.856-2.07 3.517-3.68.158-.332.29-.74.37-1.15.026-.102.053-.23.053-.332 0-.05.026-.127.026-.178.027-.18.053-.384.053-.562 0-.154.027-.282.027-.435V33.013c0-2.07.925-3.935 2.38-5.238 0 0-.688.613 0 0 .687-.613 1.586-1.15 2.644-1.507 1.057-.384 26.072-9.122 26.072-9.122V2.402z" fill="url(#e)"></path>
    <path d="M71.898 8.35L44.16.507c4.019 1.508 6.53 4.906 6.53 9.046 0 0-.025 75.2 0 77.014.027 4.088-2.67 7.589-6.53 8.892.846-.23 27.738-7.717 27.738-7.717 3.992-1.226 6.875-4.804 6.875-9.07V17.42c.026-4.24-2.883-7.844-6.875-9.07z" fill="url(#f)"></path>
  </symbol>
  <symbol xmlns="http://www.w3.org/2000/svg" viewBox="-1.132 4.727 34.057 21.467" id="onedrive">
    <path d="M12.202 11.193v-.001l6.718 4.024 4.003-1.685A6.477 6.477 0 0125.5 13c.148 0 .294.007.439.016a10 10 0 00-18.041-3.013L8 10a7.96 7.96 0 014.202 1.193z" fill="#0364b8"></path>
    <path d="M12.203 11.192A7.96 7.96 0 008 10l-.102.003a7.997 7.997 0 00-6.46 12.57L7.36 20.08l2.634-1.108 5.863-2.468 3.062-1.288z" fill="#0078d4"></path>
    <path d="M25.939 13.016A6.577 6.577 0 0025.5 13a6.477 6.477 0 00-2.576.532l-4.004 1.684 1.161.695 3.805 2.279 1.66.994 5.677 3.4a6.5 6.5 0 00-5.284-9.568z" fill="#1490df"></path>
    <path d="M25.546 19.184l-1.66-.994-3.805-2.28-1.16-.694-3.063 1.288-5.863 2.468L7.36 20.08l-5.924 2.493A7.989 7.989 0 008 26h17.5a6.498 6.498 0 005.723-3.416z" fill="#28a8ea"></path>
  </symbol>
  <symbol xmlns="http://www.w3.org/2000/svg" viewBox="-0.13 0 32.13 32" id="onenote">
    <path d="M9.333 2h21.334A1.333 1.333 0 0132 3.333v25.334A1.333 1.333 0 0130.667 30H9.333A1.333 1.333 0 018 28.667V3.333A1.333 1.333 0 019.333 2z" fill="#ca64ea"></path>
    <path d="M32 3.333A1.333 1.333 0 0030.667 2H9.332A1.333 1.333 0 008 3.333v25.334A1.333 1.333 0 009.333 30H25l7-21z" fill="#ca64ea"></path>
    <path d="M32 9h-7v7l3.5 3.195L32 16z" fill="#ae4bd5"></path>
    <path d="M32 16h-7v7l3.5 3.395L32 23z" fill="#9332bf"></path>
    <path d="M25 23h7v5.667A1.333 1.333 0 0130.667 30H25v-7z" fill="#7719aa"></path>
    <path d="M16.667 7H8v19h8.667A1.337 1.337 0 0018 24.667V8.333A1.337 1.337 0 0016.667 7z" opacity=".1"></path>
    <path d="M15.667 8H8v19h7.667A1.337 1.337 0 0017 25.667V9.333A1.337 1.337 0 0015.667 8z" opacity=".2"></path>
    <path d="M15.667 8H8v17h7.667A1.337 1.337 0 0017 23.667V9.333A1.337 1.337 0 0015.667 8z" opacity=".3"></path>
    <path d="M14.667 8H8v17h6.667A1.337 1.337 0 0016 23.667V9.333A1.337 1.337 0 0014.667 8z" opacity=".2"></path>
    <path d="M1.333 8h13.334A1.333 1.333 0 0116 9.333v13.334A1.333 1.333 0 0114.667 24H1.333A1.333 1.333 0 010 22.667V9.333A1.333 1.333 0 011.333 8z" fill="#7719aa"></path>
    <path d="M4.001 11h2.13l3.656 6.732q.286.435.43.7h.026a9.493 9.493 0 01-.06-1.326V11h1.816v10h-1.994l-3.813-6.63a5.133 5.133 0 01-.388-.686H5.77a13.628 13.628 0 01.055 1.456V21H4z" fill="#fff"></path>
    <path d="M0 0h32v32H0z" fill="none"></path>
  </symbol>
  <symbol xmlns="http://www.w3.org/2000/svg" viewBox="-0.13 0 33.252 32" id="outlook">
    <path d="M28.596 2H11.404A1.404 1.404 0 0010 3.404V5l9.69 3L30 5V3.404A1.404 1.404 0 0028.596 2z" fill="#0364b8"></path>
    <path d="M31.65 17.405A11.341 11.341 0 0032 16a.666.666 0 00-.333-.576l-.013-.008-.004-.002L20.812 9.24a1.499 1.499 0 00-.145-.083 1.5 1.5 0 00-1.334 0 1.49 1.49 0 00-.145.082L8.35 15.415l-.004.002-.012.007A.666.666 0 008 16a11.344 11.344 0 00.35 1.405l11.492 8.405z" fill="#0a2767"></path>
    <path d="M24 5h-7l-2.021 3L17 11l7 6h6v-6z" fill="#28a8ea"></path>
    <path d="M10 5h7v6h-7z" fill="#0078d4"></path>
    <path d="M24 5h6v6h-6z" fill="#50d9ff"></path>
    <path d="M24 17l-7-6h-7v6l7 6 10.832 1.768z" fill="#0364b8"></path>
    <path d="M10.031 5H30" fill="none"></path>
    <path d="M17 11h7v6h-7z" fill="#0078d4"></path>
    <path d="M10 17h7v6h-7z" fill="#064a8c"></path>
    <path d="M24 17h6v6h-6z" fill="#0078d4"></path>
    <path d="M20.19 25.218l-11.793-8.6.495-.87s10.745 6.12 10.909 6.212a.528.528 0 00.42-.012l10.933-6.23.496.869z" fill="#0a2767" opacity=".5"></path>
    <path d="M31.667 16.577l-.014.008-.003.002-10.838 6.174a1.497 1.497 0 01-1.46.091l3.774 5.061 8.254 1.797v.004A1.498 1.498 0 0032 28.5V16a.666.666 0 01-.333.577z" fill="#1490df"></path>
    <path d="M32 28.5v-.738l-9.983-5.688-1.205.687a1.497 1.497 0 01-1.46.091l3.774 5.061 8.254 1.797v.004A1.498 1.498 0 0032 28.5z" opacity=".05"></path>
    <path d="M31.95 28.883L21.007 22.65l-.195.11a1.497 1.497 0 01-1.46.092l3.774 5.061 8.254 1.797v.004a1.501 1.501 0 00.57-.83z" opacity=".1"></path>
    <path d="M8.35 16.59v-.01h-.01l-.03-.02A.65.65 0 018 16v12.5A1.498 1.498 0 009.5 30h21a1.503 1.503 0 00.37-.05.637.637 0 00.18-.06.142.142 0 00.06-.02 1.048 1.048 0 00.23-.13c.02-.01.03-.01.04-.03z" fill="#28a8ea"></path>
    <path d="M18 24.667V8.333A1.337 1.337 0 0016.667 7H10.03v7.456l-1.68.958-.005.002-.012.007A.666.666 0 008 16v.005V16v10h8.667A1.337 1.337 0 0018 24.667z" opacity=".1"></path>
    <path d="M17 25.667V9.333A1.337 1.337 0 0015.667 8H10.03v6.456l-1.68.958-.005.002-.012.007A.666.666 0 008 16v.005V16v11h7.667A1.337 1.337 0 0017 25.667z" opacity=".2"></path>
    <path d="M17 23.667V9.333A1.337 1.337 0 0015.667 8H10.03v6.456l-1.68.958-.005.002-.012.007A.666.666 0 008 16v.005V16v9h7.667A1.337 1.337 0 0017 23.667z" opacity=".2"></path>
    <path d="M16 23.667V9.333A1.337 1.337 0 0014.667 8H10.03v6.456l-1.68.958-.005.002-.012.007A.666.666 0 008 16v.005V16v9h6.667A1.337 1.337 0 0016 23.667z" opacity=".2"></path>
    <path d="M1.333 8h13.334A1.333 1.333 0 0116 9.333v13.334A1.333 1.333 0 0114.667 24H1.333A1.333 1.333 0 010 22.667V9.333A1.333 1.333 0 011.333 8z" fill="#0078d4"></path>
    <path d="M3.867 13.468a4.181 4.181 0 011.642-1.814A4.965 4.965 0 018.119 11a4.617 4.617 0 012.413.62 4.14 4.14 0 011.598 1.733 5.597 5.597 0 01.56 2.55 5.901 5.901 0 01-.577 2.666 4.239 4.239 0 01-1.645 1.794A4.8 4.8 0 017.963 21a4.729 4.729 0 01-2.468-.627 4.204 4.204 0 01-1.618-1.736 5.459 5.459 0 01-.567-2.519 6.055 6.055 0 01.557-2.65zm1.75 4.258a2.716 2.716 0 00.923 1.194 2.411 2.411 0 001.443.435 2.533 2.533 0 001.541-.449 2.603 2.603 0 00.897-1.197 4.626 4.626 0 00.286-1.665 5.063 5.063 0 00-.27-1.686 2.669 2.669 0 00-.866-1.24 2.387 2.387 0 00-1.527-.473 2.493 2.493 0 00-1.477.439 2.741 2.741 0 00-.944 1.203 4.776 4.776 0 00-.007 3.44z" fill="#fff"></path>
    <path d="M0 0h32v32H0z" fill="none"></path>
  </symbol>
  <symbol xmlns="http://www.w3.org/2000/svg" viewBox="0 0 240 234" id="photoshop">
    <path d="M42.5 0h155C221 0 240 19 240 42.5v149c0 23.5-19 42.5-42.5 42.5h-155C19 234 0 215 0 191.5v-149C0 19 19 0 42.5 0z" fill="#001e36"></path>
    <path d="M54 164.1V61.2c0-.7.3-1.1 1-1.1 1.7 0 3.3 0 5.6-.1 2.4-.1 4.9-.1 7.6-.2s5.6-.1 8.7-.2 6.1-.1 9.1-.1c8.2 0 15 1 20.6 3.1 5 1.7 9.6 4.5 13.4 8.2 3.2 3.2 5.7 7.1 7.3 11.4 1.5 4.2 2.3 8.5 2.3 13 0 8.6-2 15.7-6 21.3s-9.6 9.8-16.1 12.2c-6.8 2.5-14.3 3.4-22.5 3.4-2.4 0-4 0-5-.1s-2.4-.1-4.3-.1V164c.1.7-.4 1.3-1.1 1.4H55.2c-.8 0-1.2-.4-1.2-1.3zm21.8-84.7V113c1.4.1 2.7.2 3.9.2H85c3.9 0 7.8-.6 11.5-1.8 3.2-.9 6-2.8 8.2-5.3 2.1-2.5 3.1-5.9 3.1-10.3.1-3.1-.7-6.2-2.3-8.9-1.7-2.6-4.1-4.6-7-5.7-3.7-1.5-7.7-2.1-11.8-2-2.6 0-4.9 0-6.8.1-2-.1-3.4 0-4.1.1zM192 106.9c-3-1.6-6.2-2.7-9.6-3.4-3.7-.8-7.4-1.3-11.2-1.3-2-.1-4.1.2-6 .7-1.3.3-2.4 1-3.1 2-.5.8-.8 1.8-.8 2.7s.4 1.8 1 2.6c.9 1.1 2.1 2 3.4 2.7 2.3 1.2 4.7 2.3 7.1 3.3 5.4 1.8 10.6 4.3 15.4 7.3 3.3 2.1 6 4.9 7.9 8.3 1.6 3.2 2.4 6.7 2.3 10.3.1 4.7-1.3 9.4-3.9 13.3-2.8 4-6.7 7.1-11.2 8.9-4.9 2.1-10.9 3.2-18.1 3.2-4.6 0-9.1-.4-13.6-1.3-3.5-.6-7-1.7-10.2-3.2-.7-.4-1.2-1.1-1.1-1.9v-17.4c0-.3.1-.7.4-.9s.6-.1.9.1c3.9 2.3 8 3.9 12.4 4.9 3.8 1 7.8 1.5 11.8 1.5 3.8 0 6.5-.5 8.3-1.4 1.6-.7 2.7-2.4 2.7-4.2 0-1.4-.8-2.7-2.4-4s-4.9-2.8-9.8-4.7c-5.1-1.8-9.8-4.2-14.2-7.2-3.1-2.2-5.7-5.1-7.6-8.5-1.6-3.2-2.4-6.7-2.3-10.2 0-4.3 1.2-8.4 3.4-12.1 2.5-4 6.2-7.2 10.5-9.2 4.7-2.4 10.6-3.5 17.7-3.5 4.1 0 8.3.3 12.4.9 3 .4 5.9 1.2 8.6 2.3.4.1.8.5 1 .9.1.4.2.8.2 1.2v16.3c0 .4-.2.8-.5 1-.9.2-1.4.2-1.8 0z" fill="#31a8ff"></path>
  </symbol>
  <symbol xmlns="http://www.w3.org/2000/svg" preserveAspectRatio="xMinYMin meet" viewBox="0 0 256 134" id="php">
    <g fill-rule="evenodd">
      <ellipse fill="#8993BE" cx="128" cy="66.63" rx="128" ry="66.63"></ellipse>
      <path d="M35.945 106.082l14.028-71.014H82.41c14.027.877 21.041 7.89 21.041 20.165 0 21.041-16.657 33.315-31.562 32.438H56.11l-3.507 18.411H35.945zm23.671-31.561L64 48.219h11.397c6.137 0 10.52 2.63 10.52 7.89-.876 14.905-7.89 17.535-15.78 18.412h-10.52zm40.576 13.15l14.027-71.013h16.658l-3.507 18.41h15.78c14.028.877 19.288 7.89 17.535 16.658l-6.137 35.945h-17.534l6.137-32.438c.876-4.384.876-7.014-5.26-7.014H124.74l-7.89 39.452h-16.658zm53.233 18.411l14.027-71.014h32.438c14.028.877 21.042 7.89 21.042 20.165 0 21.041-16.658 33.315-31.562 32.438h-15.781l-3.507 18.411h-16.657zm23.67-31.561l4.384-26.302h11.398c6.137 0 10.52 2.63 10.52 7.89-.876 14.905-7.89 17.535-15.78 18.412h-10.521z" fill="#232531"></path>
    </g>
  </symbol>
  <symbol xmlns="http://www.w3.org/2000/svg" viewBox="-0.13 0 32.152 32" id="powerpoint">
    <path d="M18 2A14.041 14.041 0 004 16l17.737 3.737z" fill="#ed6c47"></path>
    <path d="M18 2a14.041 14.041 0 0114 14l-7 4.758L18 16z" fill="#ff8f6b"></path>
    <path d="M18 30a14.041 14.041 0 0014-14H4a14.041 14.041 0 0014 14z" fill="#d35230"></path>
    <path d="M16.666 7h-9.36a13.914 13.914 0 00.93 19h8.43A1.337 1.337 0 0018 24.667V8.333A1.337 1.337 0 0016.666 7z" opacity=".1"></path>
    <path d="M15.666 8H6.54a13.906 13.906 0 002.845 19h6.282A1.337 1.337 0 0017 25.667V9.333A1.337 1.337 0 0015.666 8z" opacity=".2"></path>
    <path d="M15.666 8H6.54a13.89 13.89 0 00.766 17h8.361A1.337 1.337 0 0017 23.667V9.333A1.337 1.337 0 0015.666 8z" opacity=".2"></path>
    <path d="M14.666 8H6.54a13.89 13.89 0 00.766 17h7.361A1.337 1.337 0 0016 23.667V9.333A1.337 1.337 0 0014.666 8z" opacity=".2"></path>
    <path d="M1.333 8h13.334A1.333 1.333 0 0116 9.333v13.334A1.333 1.333 0 0114.667 24H1.333A1.333 1.333 0 010 22.667V9.333A1.333 1.333 0 011.333 8z" fill="#c43e1c"></path>
    <path d="M7.997 11a4.168 4.168 0 012.755.805 2.878 2.878 0 01.956 2.331 2.726 2.726 0 01-.473 1.588 3.164 3.164 0 01-1.344 1.186 4.57 4.57 0 01-2.02.424h-1.91V21H4V11zM5.96 15.683h1.687a2.194 2.194 0 001.492-.444 1.107 1.107 0 00.504-1.026q0-1.659-1.933-1.659H5.96z" fill="#f9f7f7"></path>
    <path d="M0 0h32v32H0z" fill="none"></path>
  </symbol>
  <symbol xmlns="http://www.w3.org/2000/svg" preserveAspectRatio="xMinYMin meet" viewBox="0 0 256 255" id="python">
    <defs>
      <linearGradient x1="12.959%" y1="12.039%" x2="79.639%" y2="78.201%" id="a">
        <stop stop-color="#387EB8" offset="0%"></stop>
        <stop stop-color="#366994" offset="100%"></stop>
      </linearGradient>
      <linearGradient x1="19.128%" y1="20.579%" x2="90.742%" y2="88.429%" id="b">
        <stop stop-color="#FFE052" offset="0%"></stop>
        <stop stop-color="#FFC331" offset="100%"></stop>
      </linearGradient>
    </defs>
    <path d="M126.916.072c-64.832 0-60.784 28.115-60.784 28.115l.072 29.128h61.868v8.745H41.631S.145 61.355.145 126.77c0 65.417 36.21 63.097 36.21 63.097h21.61v-30.356s-1.165-36.21 35.632-36.21h61.362s34.475.557 34.475-33.319V33.97S194.67.072 126.916.072zM92.802 19.66a11.12 11.12 0 0111.13 11.13 11.12 11.12 0 01-11.13 11.13 11.12 11.12 0 01-11.13-11.13 11.12 11.12 0 0111.13-11.13z" fill="url(#a)"></path>
    <path d="M128.757 254.126c64.832 0 60.784-28.115 60.784-28.115l-.072-29.127H127.6v-8.745h86.441s41.486 4.705 41.486-60.712c0-65.416-36.21-63.096-36.21-63.096h-21.61v30.355s1.165 36.21-35.632 36.21h-61.362s-34.475-.557-34.475 33.32v56.013s-5.235 33.897 62.518 33.897zm34.114-19.586a11.12 11.12 0 01-11.13-11.13 11.12 11.12 0 0111.13-11.131 11.12 11.12 0 0111.13 11.13 11.12 11.12 0 01-11.13 11.13z" fill="url(#b)"></path>
  </symbol>
  <symbol xmlns="http://www.w3.org/2000/svg" viewBox="0 0 512 384" id="sass">
    <path fill="#CF649A" d="M440.6 220.6c-17.9.101-33.4 4.4-46.4 10.801-4.8-9.5-9.6-17.801-10.399-24-.9-7.2-2-11.601-.9-20.2C384 178.6 389 166.4 389 165.4c-.101-.9-1.101-5.3-11.4-5.4s-19.2 2-20.2 4.7-3 8.9-4.3 15.3c-1.8 9.4-20.6 42.7-31.3 60.2-3.5-6.8-6.5-12.8-7.101-17.601-.899-7.199-2-11.6-.899-20.199 1.1-8.601 6.1-20.8 6.1-21.8-.1-.9-1.1-5.3-11.399-5.4-10.301-.1-19.2 2-20.2 4.7s-2.1 9.1-4.3 15.3C281.9 201.4 256.9 257 250.4 271.5c-3.3 7.4-6.199 13.3-8.3 17.3-2.1 4-.1.3-.3.7-1.8 3.4-2.8 5.3-2.8 5.3v.101c-1.4 2.5-2.9 4.899-3.601 4.899-.5 0-1.5-6.7.2-15.899 3.7-19.301 12.7-49.4 12.601-50.5 0-.5 1.699-5.801-5.801-8.5-7.3-2.7-9.899 1.8-10.5 1.8-.6 0-1.1 1.6-1.1 1.6s8.1-33.899-15.5-33.899c-14.8 0-35.2 16.1-45.3 30.8-6.4 3.5-20 10.899-34.4 18.8-5.5 3-11.2 6.2-16.6 9.1L117.9 251.9c-28.6-30.5-81.5-52.1-79.3-93.1.8-14.9 6-54.2 101.601-101.8 78.3-39 141-28.3 151.899-4.5 15.5 34-33.5 97.2-114.899 106.3-31 3.5-47.301-8.5-51.4-13-4.3-4.7-4.9-4.9-6.5-4-2.6 1.4-1 5.6 0 8.1 2.4 6.3 12.4 17.5 29.4 23.1 14.899 4.9 51.3 7.6 95.3-9.4 49.3-19.1 87.8-72.1 76.5-116.4-11.5-45.1-86.3-59.9-157-34.8C121.4 27.4 75.8 50.8 43 81.5 4 117.9-2.2 149.7.4 162.9c9.101 47.1 74 77.8 100 100.5-1.3.699-2.5 1.399-3.6 2-13 6.399-62.5 32.3-74.9 59.699-14 31 2.2 53.301 13 56.301 33.4 9.3 67.6-7.4 86.1-34.9 18.399-27.5 16.2-63.2 7.7-79.5l-.301-.6 10.2-6c6.601-3.9 13.101-7.5 18.8-10.601-3.199 8.7-5.5 19-6.699 34-1.4 17.601 5.8 40.4 15.3 49.4 4.2 3.899 9.2 4 12.3 4 11 0 16-9.101 21.5-20 6.8-13.3 12.8-28.7 12.8-28.7s-7.5 41.7 13 41.7c7.5 0 15-9.7 18.4-14.7v.1s.2-.3.6-1a36.13 36.13 0 001.2-1.899v-.2c3-5.2 9.7-17.1 19.7-36.8 12.899-25.4 25.3-57.2 25.3-57.2s1.2 7.8 4.9 20.6c2.199 7.601 6.999 15.9 10.699 24-3 4.2-4.8 6.601-4.8 6.601l.1.1c-2.399 3.2-5.1 6.601-7.899 10-10.2 12.2-22.4 26.101-24 30.101-1.9 4.699-1.5 8.199 2.2 11 2.7 2 7.5 2.399 12.6 2 9.2-.601 15.6-2.9 18.8-4.301 5-1.8 10.7-4.5 16.2-8.5 10-7.399 16.1-17.899 15.5-31.899-.3-7.7-2.8-15.3-5.9-22.5.9-1.3 1.801-2.601 2.7-4 15.8-23.101 28-48.5 28-48.5s1.2 7.8 4.9 20.6c1.899 6.5 5.7 13.601 9.1 20.601-14.8 12.1-24.1 26.1-27.3 35.3-5.9 17-1.3 24.7 7.4 26.5 3.899.8 9.5-1 13.699-2.8 5.2-1.7 11.5-4.601 17.301-8.9 10-7.4 19.6-17.7 19.1-31.6-.3-6.4-2-12.7-4.3-18.7 12.6-5.2 28.899-8.2 49.6-5.7 44.5 5.2 53.3 33 51.601 44.6-1.7 11.601-11 18-14.101 20-3.1 1.9-4.1 2.601-3.8 4 .4 2.101 1.8 2 4.5 1.601 3.7-.601 23.4-9.5 24.2-30.899 1.2-27.504-24.9-57.504-71.2-57.205zM97.4 336.3c-14.7 16.1-35.4 22.2-44.2 17-9.5-5.5-5.801-29.2 12.3-46.3 11-10.4 25.3-20 34.7-25.9 2.1-1.3 5.3-3.199 9.1-5.5.6-.399 1-.6 1-.6.7-.4 1.5-.9 2.3-1.4 6.7 24.4.3 45.8-15.2 62.7zm107.5-73.1c-5.1 12.5-15.9 44.6-22.4 42.8-5.601-1.5-9-25.8-1.101-49.8 4-12.101 12.5-26.5 17.5-32.101 8.101-9 16.9-12 19.101-8.3 2.6 4.801-9.9 39.601-13.1 47.401zm88.7 42.4c-2.2 1.101-4.2 1.9-5.1 1.301-.7-.4.899-1.9.899-1.9s11.1-11.9 15.5-17.4c2.5-3.199 5.5-6.899 8.7-11.1v1.2C313.6 292.1 299.8 301.7 293.6 305.6zm68.399-15.6c-1.6-1.2-1.399-4.9 4-16.5 2.101-4.6 6.9-12.3 15.2-19.6 1 3 1.601 5.899 1.5 8.6-.099 18-12.899 24.7-20.7 27.5z"></path>
  </symbol>
  <symbol xmlns="http://www.w3.org/2000/svg" viewBox="0 0 240 240" id="telegram">
    <linearGradient id="a" gradientUnits="userSpaceOnUse" x1="-683.305" y1="534.845" x2="-693.305" y2="511.512" gradientTransform="matrix(6 0 0 -6 4255 3247)">
      <stop offset="0" stop-color="#37aee2"></stop>
      <stop offset="1" stop-color="#1e96c8"></stop>
    </linearGradient>
    <path d="M240 120c0 66.3-53.7 120-120 120S0 186.3 0 120 53.7 0 120 0s120 53.7 120 120z" fill="url(#a)"></path>
    <path d="M98 175c-3.9 0-3.2-1.5-4.6-5.2L82 132.2 152.8 88l8.3 2.2-6.9 18.8L98 175z" fill="#c8daea"></path>
    <path d="M98 175c3 0 4.3-1.4 6-3 2.6-2.5 36-35 36-35l-20.5-5-19 12-2.5 30v1z" fill="#a9c9dd"></path>
    <linearGradient id="b" gradientUnits="userSpaceOnUse" x1="128.991" y1="118.245" x2="153.991" y2="78.245" gradientTransform="matrix(1 0 0 -1 0 242)">
      <stop offset="0" stop-color="#eff7fc"></stop>
      <stop offset="1" stop-color="#fff"></stop>
    </linearGradient>
    <path d="M100 144.4l48.4 35.7c5.5 3 9.5 1.5 10.9-5.1L179 82.2c2-8.1-3.1-11.7-8.4-9.3L55 117.5c-7.9 3.2-7.8 7.6-1.4 9.5l29.7 9.3L152 93c3.2-2 6.2-.9 3.8 1.3L100 144.4z" fill="url(#b)"></path>
  </symbol>
  <symbol xmlns="http://www.w3.org/2000/svg" viewBox="-58.35 -186.706 2548.29 2538.85" id="tiktok">
    <g fill="#25f4ee">
      <path d="M779.38 890.55v-88.12a650.81 650.81 0 00-92.45-7.94c-299.8-.64-565.22 193.64-655.25 479.6S47.92 1871.34 294 2042.56a684.7 684.7 0 01485.36-1152z"></path>
      <path d="M796 1888.72c167.62-.23 305.4-132.28 312.74-299.74V94.62h273A512.17 512.17 0 011373.8 0h-373.41v1492.92c-6.21 168.31-144.32 301.63-312.74 301.9a317.76 317.76 0 01-144.45-36.11A313.48 313.48 0 00796 1888.72zM1891.66 601.64v-83.06a509.85 509.85 0 01-282.4-85.22 517.79 517.79 0 00282.4 168.28z"></path>
    </g>
    <path d="M1609.26 433.36a514.19 514.19 0 01-127.84-339.47h-99.68a517.16 517.16 0 00227.52 339.47zM686.93 1167.9a313.46 313.46 0 00-144.46 590.81A312.75 312.75 0 01796 1262.51a329.69 329.69 0 0192.44 14.49V897.05a654.77 654.77 0 00-92.44-7.22h-16.62v288.9a321.13 321.13 0 00-92.45-10.83z" fill="#fe2c55"></path>
    <path d="M1891.66 601.64v288.91a886.23 886.23 0 01-517.86-168.29v759.1c-.8 378.78-308.09 685.43-686.87 685.43A679.65 679.65 0 01294 2042.56 685.43 685.43 0 001481.42 1576V819.05A887.71 887.71 0 002000 985.17v-372a529.59 529.59 0 01-108.34-11.53z" fill="#fe2c55"></path>
    <path d="M1373.8 1481.36v-759.1a886.11 886.11 0 00518.58 166.12v-288.9a517.87 517.87 0 01-283.12-166.12 517.16 517.16 0 01-227.52-339.47h-273V1589a313.46 313.46 0 01-567 171.17 313.46 313.46 0 01144.46-590.83 321.35 321.35 0 0192.45 14.45V894.88A684.71 684.71 0 00293.29 2050.5a679.65 679.65 0 00393.64 116.29c378.78 0 686.07-306.65 686.87-685.43z"></path>
  </symbol>
  <symbol xmlns="http://www.w3.org/2000/svg" preserveAspectRatio="xMidYMid" viewBox="0 0 256 256" id="trello">
    <defs>
      <linearGradient x1="50%" y1="0%" x2="50%" y2="100%" id="a">
        <stop stop-color="#0091E6" offset="0%"></stop>
        <stop stop-color="#0079BF" offset="100%"></stop>
      </linearGradient>
    </defs>
    <rect fill="url(#a)" width="256" height="256" rx="25"></rect>
    <rect fill="#FFF" x="144.64" y="33.28" width="78.08" height="112" rx="12"></rect>
    <rect fill="#FFF" x="33.28" y="33.28" width="78.08" height="176" rx="12"></rect>
  </symbol>
  <symbol clip-rule="evenodd" fill-rule="evenodd" stroke-linejoin="round" stroke-miterlimit="2" xmlns="http://www.w3.org/2000/svg" viewBox="-89.009 -46.884 643.937 446.884" id="twitter">
    <path d="M154.729 400c185.669 0 287.205-153.876 287.205-287.312 0-4.37-.089-8.72-.286-13.052A205.304 205.304 0 00492 47.346c-18.087 8.044-37.55 13.458-57.968 15.899 20.841-12.501 36.84-32.278 44.389-55.852a202.42 202.42 0 01-64.098 24.511C395.903 12.276 369.679 0 340.641 0c-55.744 0-100.948 45.222-100.948 100.965 0 7.925.887 15.631 2.619 23.025-83.895-4.223-158.287-44.405-208.074-105.504A100.739 100.739 0 0020.57 69.24c0 35.034 17.82 65.961 44.92 84.055a100.172 100.172 0 01-45.716-12.63c-.015.424-.015.837-.015 1.29 0 48.903 34.794 89.734 80.982 98.986a101.036 101.036 0 01-26.617 3.553c-6.493 0-12.821-.639-18.971-1.82 12.851 40.122 50.115 69.319 94.296 70.135-34.549 27.089-78.07 43.224-125.371 43.224A204.9 204.9 0 010 354.634c44.674 28.645 97.72 45.359 154.734 45.359" fill="#1da1f2" fill-rule="nonzero"></path>
  </symbol>
  <symbol xmlns="http://www.w3.org/2000/svg" xmlns:xlink="http://www.w3.org/1999/xlink" viewBox="0 0 202 202" id="vk">
    <defs>
      <path id="a" d="M71.6 5h58.9C184.3 5 197 17.8 197 71.6v58.9c0 53.8-12.8 66.5-66.6 66.5H71.5C17.7 197 5 184.2 5 130.4V71.5C5 17.8 17.8 5 71.6 5z"></path>
    </defs>
    <use xlink:href="#a" overflow="visible" fill-rule="evenodd" clip-rule="evenodd" fill="#5181b8"></use>
    <clipPath id="b">
      <use xlink:href="#a" overflow="visible"></use>
    </clipPath>
    <path d="M0 0h202v202H0z" clip-path="url(#b)" fill="#5181b8"></path>
    <path d="M162.2 71.1c.9-3 0-5.1-4.2-5.1h-14c-3.6 0-5.2 1.9-6.1 4 0 0-7.1 17.4-17.2 28.6-3.3 3.3-4.7 4.3-6.5 4.3-.9 0-2.2-1-2.2-4V71.1c0-3.6-1-5.1-4-5.1H86c-2.2 0-3.6 1.7-3.6 3.2 0 3.4 5 4.2 5.6 13.6v20.6c0 4.5-.8 5.3-2.6 5.3-4.7 0-16.3-17.4-23.1-37.4-1.4-3.7-2.7-5.3-6.3-5.3H42c-4 0-4.8 1.9-4.8 4 0 3.7 4.7 22.1 22.1 46.4C70.9 133 87.2 142 102 142c8.9 0 10-2 10-5.4V124c0-4 .8-4.8 3.7-4.8 2.1 0 5.6 1 13.9 9 9.5 9.5 11.1 13.8 16.4 13.8h14c4 0 6-2 4.8-5.9-1.3-3.9-5.8-9.6-11.8-16.4-3.3-3.9-8.2-8-9.6-10.1-2.1-2.7-1.5-3.9 0-6.2 0-.1 17.1-24.1 18.8-32.3z" fill-rule="evenodd" clip-rule="evenodd" fill="#fff"></path>
  </symbol>
  <symbol xmlns="http://www.w3.org/2000/svg" viewBox="-11.9 -2 1003.9 995.6" id="vscode">
    <path d="M12.1 353.9s-24-17.3 4.8-40.4l67.1-60s19.2-20.2 39.5-2.6l619.2 468.8v224.8s-.3 35.3-45.6 31.4z" fill="#2489ca"></path>
    <path d="M171.7 498.8L12.1 643.9s-16.4 12.2 0 34l74.1 67.4s17.6 18.9 43.6-2.6L299 614.4z" fill="#1070b3"></path>
    <path d="M451.9 500l292.7-223.5-1.9-223.6s-12.5-48.8-54.2-23.4L299 384z" fill="#0877b9"></path>
    <path d="M697.1 976.2c17 17.4 37.6 11.7 37.6 11.7l228.1-112.4c29.2-19.9 25.1-44.6 25.1-44.6V159.7c0-29.5-30.2-39.7-30.2-39.7L760 24.7c-43.2-26.7-71.5 4.8-71.5 4.8s36.4-26.2 54.2 23.4v887.5c0 6.1-1.3 12.1-3.9 17.5-5.2 10.5-16.5 20.3-43.6 16.2z" fill="#3c99d4"></path>
  </symbol>
  <symbol xmlns="http://www.w3.org/2000/svg" preserveAspectRatio="xMinYMin meet" viewBox="0 0 256 221" id="vue">
    <path d="M204.8 0H256L128 220.8 0 0h97.92L128 51.2 157.44 0h47.36z" fill="#41B883"></path>
    <path d="M0 0l128 220.8L256 0h-51.2L128 132.48 50.56 0H0z" fill="#41B883"></path>
    <path d="M50.56 0L128 133.12 204.8 0h-47.36L128 51.2 97.92 0H50.56z" fill="#35495E"></path>
  </symbol>
  <symbol xmlns="http://www.w3.org/2000/svg" viewBox="-0.13 0 32.13 32" id="word">
    <path d="M30.667 2H9.333A1.333 1.333 0 008 3.333V9l12 3.5L32 9V3.333A1.333 1.333 0 0030.667 2z" fill="#41a5ee"></path>
    <path d="M32 9H8v7l12 3.5L32 16z" fill="#2b7cd3"></path>
    <path d="M32 16H8v7l12 3.5L32 23z" fill="#185abd"></path>
    <path d="M32 23H8v5.667A1.333 1.333 0 009.333 30h21.334A1.333 1.333 0 0032 28.667z" fill="#103f91"></path>
    <path d="M16.667 7H8v19h8.667A1.337 1.337 0 0018 24.667V8.333A1.337 1.337 0 0016.667 7z" opacity=".1"></path>
    <path d="M15.667 8H8v19h7.667A1.337 1.337 0 0017 25.667V9.333A1.337 1.337 0 0015.667 8z" opacity=".2"></path>
    <path d="M15.667 8H8v17h7.667A1.337 1.337 0 0017 23.667V9.333A1.337 1.337 0 0015.667 8z" opacity=".2"></path>
    <path d="M14.667 8H8v17h6.667A1.337 1.337 0 0016 23.667V9.333A1.337 1.337 0 0014.667 8z" opacity=".2"></path>
    <path d="M1.333 8h13.334A1.333 1.333 0 0116 9.333v13.334A1.333 1.333 0 0114.667 24H1.333A1.333 1.333 0 010 22.667V9.333A1.333 1.333 0 011.333 8z" fill="#185abd"></path>
    <path d="M11.95 21h-1.8l-2.1-6.9-2.2 6.9h-1.8l-2-10h1.8l1.4 7 2.1-6.8h1.5l2 6.8 1.4-7h1.7z" fill="#fff"></path>
    <path d="M0 0h32v32H0z" fill="none"></path>
  </symbol>
  <symbol xmlns="http://www.w3.org/2000/svg" viewBox="0 0 240 234" id="xd">
    <path d="M42.5 0h155C221 0 240 19 240 42.5v149c0 23.5-19 42.5-42.5 42.5h-155C19 234 0 215 0 191.5v-149C0 19 19 0 42.5 0z" fill="#470137"></path>
    <path d="M126.2 61.5l-30 49.5 32 52.5c.2.4.3.8.2 1.2s-.5.1-1.1.2h-22.9c-1.6 0-2.7-.1-3.4-1.1-2.1-4.2-4.3-8.3-6.4-12.5-2.1-4.1-4.4-8.3-6.8-12.6s-4.8-8.6-7.2-13h-.2c-2.1 4.3-4.4 8.6-6.7 12.9s-4.6 8.6-6.8 12.8c-2.3 4.2-4.6 8.5-6.9 12.6-.4 1-1.2 1.1-2.3 1.1h-22c-.4 0-.7.2-.7-.3-.1-.4 0-.8.2-1.1l31.1-51L36 61.4c-.3-.4-.4-.8-.2-1 .2-.3.6-.4 1-.4h22.7c.5 0 1 .1 1.4.2.4.2.7.5 1 .9 1.9 4.3 4.1 8.6 6.4 12.9 2.4 4.3 4.7 8.5 7.2 12.7 2.4 4.2 4.6 8.4 6.7 12.7h.2c2.1-4.4 4.3-8.7 6.5-12.9s4.5-8.4 6.8-12.6 4.5-8.5 6.7-12.6c.1-.4.3-.8.6-1 .4-.2.8-.3 1.3-.2h21.1c.5-.1 1 .2 1.1.7.1.1-.1.5-.3.7zM172.4 167c-7.4.1-14.8-1.4-21.5-4.5-6.3-2.9-11.5-7.7-15.1-13.6-3.7-6.1-5.5-13.7-5.5-22.8-.1-7.4 1.8-14.7 5.5-21.1 3.8-6.5 9.3-11.9 15.9-15.5 7-3.9 15.4-5.8 25.3-5.8.5 0 1.2 0 2.1.1s1.9.1 3.1.2V52.4c0-.7.3-1.1 1-1.1h20.3c.5-.1.9.3 1 .7v95.4c0 1.8.1 3.8.2 6 .2 2.1.3 4.1.4 5.8 0 .7-.3 1.3-1 1.6-5.2 2.2-10.7 3.8-16.3 4.8-5.1.9-10.2 1.4-15.4 1.4zm9.8-20v-44c-.9-.2-1.8-.4-2.7-.5-1.1-.1-2.2-.2-3.3-.2-3.9 0-7.8.8-11.3 2.6-3.4 1.7-6.3 4.2-8.5 7.4s-3.3 7.5-3.3 12.7c-.1 3.5.5 7 1.7 10.3 1 2.7 2.5 5.1 4.5 7.1 1.9 1.8 4.2 3.2 6.8 4 2.7.9 5.5 1.3 8.3 1.3 1.5 0 2.9-.1 4.2-.2 1.3.1 2.4-.1 3.6-.5z" fill="#ff61f6"></path>
  </symbol>
  <symbol xmlns="http://www.w3.org/2000/svg" xmlns:xlink="http://www.w3.org/1999/xlink" viewBox="0 0 2947 2947" id="3ds-max">
    <path d="M1048.6 1679.6L944 2024.1H715l389.6-1215.6h283.2l395 1215.6h-238.1l-110-344.5h-386.1zm348-167.7l-95.6-299.4c-23.4-73.9-43.3-156.9-61.3-227.2h-3.6c-18 70.3-36.1 155.1-57.7 227.2l-93.8 299.4h312zm773.7-611.4c0 66.7-48.7 119-126.2 119-73.9 0-122.6-52.3-122.6-119 0-68.5 50.5-120.8 124.4-120.8 75.7 0 122.6 52.3 124.4 120.8zm-236.2 1123.6v-878.3h223.6v878.3h-223.6z"></path>
    <path d="M9 8h2931v2931H9z"></path>
    <path d="M285 284h2379v2379H285z"></path>
    <path d="M744.8 828.1c79.4-14.4 189.4-25.2 339.1-25.2 162.4 0 281.4 34.3 359 99.2 72.1 59.5 119.1 155.1 119.1 268.8 0 115.4-36.1 211.1-104.6 276-88.4 88.4-227.3 129.9-384.2 129.9-41.5 0-79.4-1.8-108.2-7.2v458.2H744.8V828.1zm220.1 566.4c27.1 7.2 63.1 9 108.2 9 166 0 267-81.2 267-223.7 0-135.3-93.8-207.4-247.1-207.4-61.3 0-104.6 5.4-128.1 10.8v411.3zm730.5 429.3c50.5 30.7 146.1 63.1 225.5 63.1 97.4 0 140.7-39.7 140.7-97.4 0-59.5-36.1-90.2-144.3-128.1-171.4-59.5-243.5-153.3-241.7-256.1 0-155.1 128.1-276 331.9-276 97.4 0 182.2 25.2 232.7 52.3l-43.3 156.9c-37.9-21.7-108.2-50.5-185.8-50.5-79.4 0-122.7 37.9-122.7 92 0 55.9 41.5 83 153.3 122.7 158.7 57.7 232.7 138.9 234.5 268.8 0 158.7-124.4 274.2-357.2 274.2-106.4 0-202-25.2-267-61.3l43.4-160.6z"></path>
    <path d="M818.4 1683l-105.1 346.1H483.2L874.6 807.8h284.5l396.8 1221.3h-239.2L1206.2 1683H818.4zm349.8-168.5l-96-300.8c-23.6-74.3-43.5-157.7-61.6-228.3h-3.6c-18.1 70.7-36.2 155.8-58 228.3l-94.2 300.8h313.4zm683 135.9c5.4 159.4 130.5 228.3 271.8 228.3 103.3 0 177.6-14.5 244.6-39.9l32.6 154c-76.1 30.8-181.2 54.4-308 54.4-286.3 0-454.8-175.8-454.8-445.8 0-244.6 148.6-474.7 431.3-474.7 286.3 0 380.5 235.6 380.5 429.5 0 41.7-3.6 74.3-7.2 94.2h-590.8zm387.8-155.8c1.8-81.5-34.4-215.6-183-215.6-137.7 0-195.7 125-204.8 215.6H2239z"></path>
    <path d="M1060.2 807.1v1220.8H837.4V807.1h222.8zm1059.5-65.2v1037.8c0 90.6 3.6 188.4 7.2 248.1h-199.2l-9-139.5h-3.6c-52.5 97.8-159.4 159.4-288 159.4-210.1 0-376.7-179.3-376.7-451-1.8-295.2 182.9-470.9 394.9-470.9 121.3 0 208.3 50.7 248.1 115.9h3.6V741.9h222.7zM1897 1513.5c0-18.1-1.8-39.8-5.4-58-19.9-86.9-90.6-157.6-192-157.6-143.1 0-222.8 126.8-222.8 291.6 0 161.2 79.7 278.9 221 278.9 90.6 0 170.3-61.6 192-157.6 5.4-19.9 7.2-41.7 7.2-65.2v-132.1z"></path>
    <path d="M0 0h2947v2947H0z"></path>
    <path d="M1611 1008h-300.2l-115.5-756h531.2z"></path>
    <path d="M1385 0h151v2670h-151z"></path>
    <path d="M1528.4 2704l-134.9-68.1L2602.5 243l134.9 68.1z"></path>
    <path d="M1494.4 2743.1l-37.9-146.3 1305.3-337.9 37.9 146.3z"></path>
    <path d="M1508.4 2728.7l-95-117.6L2810 1483.5l94.9 117.6z"></path>
    <path d="M1404.7 2704L195.6 311.1 330.5 243l1209.1 2392.9z"></path>
    <path d="M1438.7 2743.1L133.3 2405.2l37.9-146.3 1305.4 337.9z"></path>
    <path d="M1424.6 2728.7L28.1 1601.1l94.9-117.6 1396.6 1127.6z"></path>
    <path d="M0 0h2947v2947H0z"></path>
    <path d="M1611 1008h-300.2l-115.5-756h531.2zM579 2468h1789v152H579zm0-201h1789v151H579zm0-202h1789v152H579zm0-201h1789v151H579zm0-202h1789v152H579zm177-201h1435v151H756zm201-202h1033v152H957zm202-201h629v151h-629z"></path>
    <path d="M1474.4 2949.8L415.1 2651.4 180 3h2590.6l-236 2648.4z"></path>
    <path d="M1873.9 1574.9l-35.4 425.9-363.9 97.3-1.2-.3v-522.9z"></path>
    <path d="M1473.4 2946.8L414.1 2648.4 179 0h2590.6l-236 2648.4z"></path>
    <path d="M1474 206l-.2 2518.7 853.8-245.2L2545.3 206z"></path>
    <image width="263" height="263" xlink:href="82106FE0730638EC.jpeg" transform="translate(447 423) scale(7.9848)" overflow="visible"></image>
    <path d="M0 0h2947v2947H0z" fill="#09a1a1"></path>
    <path d="M1371.6 965l-2.8-1V705.2l2.9-2.6 1-1.6 956.2 619.8-957.4-355.5zm0 712l-.1-.3 957.4-355.5-956.3 619.8-.9-1.4h-2.9V1678z" fill="#001717"></path>
    <path d="M1812.5 290.7l516.4 1030.1L1372.7 701l-1.2-.8.2-.5 437.7-406.1zm516.4 1030.5l-516.4 1030.1-2.9-2.8-437.9-406.2-.2-.5 1.1-.8z"></path>
    <path d="M1371.5 700.2l1.2.8-1 1.6H671.4l-6.3-2.4 174.9-407 .9.4h968.5l-437.7 406.1zm.2 2.4l-2.9 2.6v-2.6zm0 1237l.9 1.4-1.1.8.2.5 437.9 406.2H840.9l-.9.4-174.9-407.1 5.9-2.2h694.7l3.1 2.9v-2.9zm-.2-974.3l957.4 355.5v.4l-957.4 355.5.1.3-2.8 1V964l2.8 1z"></path>
    <path d="M1368.8 1939.6v2.9l-3.1-2.9zm0-261.6v261.6h-3.1l-199.2-185.8z"></path>
    <path d="M1368.8 1677.1v.9l-202.3 75.8-459.3-432.2v-1.2l459.3-432.2 202.3 75.8v357.8z"></path>
    <path d="M1368.8 705.2V964l-202.3-75.8z"></path>
    <path d="M1368.8 702.6v2.6l-202.3 183-495.1-185.6zm-3.1 1237H671l495.5-185.8z" fill="#013535"></path>
    <path d="M1043.9 2512.8h80.1l26.1 100.5 8.5 39.8h1.4l8.5-39.8 24.6-100.5h80.1v308.1h-65.4v-72.5c0-9.2.4-20.8 1.2-34.8.8-14.1 1.7-28.6 2.6-43.6.9-15 2.1-29.5 3.3-43.4 1.3-13.9 2.4-25.4 3.3-34.6h-1.4l-25.6 91.5-16.1 55.5H1140l-16.1-55.5-24.2-91.5h-1.9c.9 9.2 2.1 20.7 3.3 34.6 1.3 13.9 2.4 28.4 3.3 43.4.9 15 1.8 29.6 2.6 43.6.8 14.1 1.2 25.7 1.2 34.8v72.5h-64.5l.2-308.1zm493.9 242.7h-84.4l-15.2 65.4h-83.4l92.9-308.1h98.6l92.9 308.1h-86.3l-15.1-65.4zm-14.7-63.1l-4.7-21.3c-3.5-14.9-7.1-31-10.9-48.3-3.8-17.4-7.6-33.8-11.4-49.3h-1.9c-3.5 15.8-7 32.3-10.7 49.5-3.6 17.2-7.2 33.3-10.7 48.1l-4.7 21.3h55zm261.1-29.8l-83.9-149.8h91l24.6 50.2c3.5 7.3 7.1 15.1 10.9 23.5 3.8 8.4 7.9 17.6 12.3 27.7h1.9c3.5-10.1 6.9-19.4 10.4-27.7 3.5-8.4 6.8-16.2 10-23.5l21.8-50.2h87.2l-83.9 153.6 89.1 154.5h-91l-28.4-55c-4.4-8.2-8.5-16.4-12.1-24.6-3.6-8.2-7.5-17.1-11.6-26.5h-1.9c-3.5 9.5-7 18.3-10.7 26.5-3.6 8.2-7.3 16.4-11.1 24.6l-26.5 55h-87.2l89.1-158.3z" fill="#fff"></path>
  </symbol>
  <symbol xmlns="http://www.w3.org/2000/svg" viewBox="0 0 123.16 136.326" id="adobe">
    <g fill-rule="evenodd" clip-rule="evenodd">
      <path d="M105.166 3.116h7.479l-.235 1.324h-1.402c-.701 0-1.168-.155-1.168-.155V6.7c0 .856-.234 1.714-.234 2.57 0 .857-.234 1.714-.234 2.182h-1.869V9.27c0-.856.234-1.714.234-2.57 0-.935.232-2.025.232-2.415h-1.87c-.467 0-.934.155-.934.155V3.116h.001zm8.412 0h2.57c0 .467.234.935.234 1.168 0 .39.467 1.09.701 1.947 0 .234.234.857.234 1.324.232.857.701 1.714.701 1.714 0-.467.467-1.09.701-1.947.232-.623.701-1.558.934-2.181.234-.702.701-1.558.701-2.025h2.805v2.648c0 .935-.234 2.181-.234 3.038v2.649h-1.869V7.555c0-.701.234-1.324.234-1.792v-.855l-2.57 6.544h-1.871c0-.468-.467-1.324-.467-1.948-.234-1.09-.701-1.948-.701-2.181 0-.467-.467-1.324-.701-2.181v2.181c0 .623-.234 1.48-.234 2.181v1.948h-1.869c0-.857.234-1.948.234-2.882 0-.779.232-1.87.232-2.805.001-.857.235-1.714.235-2.649zM23.682 135.779h-4.986l-1.947-7.01H7.556l-1.947 7.01H.779l8.491-31.004h5.453l8.959 31.004zm-8.336-12.074l-3.271-11.684-3.039 11.684h6.31zm26.253 12.074h-4.207v-3.193c-.701 1.402-1.636 2.338-2.493 2.727-.856.467-1.792 1.014-2.727 1.014-1.714 0-3.427-1.17-4.674-3.117-1.402-1.791-2.025-4.906-2.025-8.568 0-3.738.624-7.012 1.792-8.959 1.246-1.869 3.038-3.037 5.142-3.037 1.636 0 3.35 1.168 4.829 3.271v-11.141h4.363v31.003zm-11.841-11.683c0 2.336.312 4.439.701 5.375.702 1.402 1.714 2.336 2.883 2.336 1.09 0 1.947-.701 2.648-1.557.701-1.17 1.246-3.117 1.246-5.453 0-2.494-.389-4.596-1.09-5.766-.624-1.168-1.714-1.947-2.804-1.947-.935 0-1.792.779-2.571 1.715-.702 1.168-1.013 2.959-1.013 5.297zm15.424 0c0-1.793.233-3.74.935-5.531.779-1.869 1.792-3.271 3.038-4.207 1.324-1.012 2.96-1.713 4.519-1.713 2.415 0 4.674 1.168 6.154 3.271 1.636 2.336 2.493 5.453 2.493 8.725s-.857 6.232-2.493 8.336c-1.714 2.18-3.739 3.35-6.154 3.35-1.48 0-2.96-.547-4.362-1.402-1.402-.936-2.415-2.338-3.194-4.051-.701-1.793-.935-4.129-.935-6.467v-.311h-.001zm4.362.545c0 2.338.234 4.129.935 5.297.779 1.168 1.948 1.869 3.039 1.869 1.012 0 2.181-.701 2.882-1.869.779-1.168 1.246-2.959 1.246-5.297s-.467-4.285-1.246-5.453c-.701-1.324-1.87-2.104-2.882-2.104-1.091 0-2.181.779-2.805 1.947-.701 1.324-1.169 3.272-1.169 5.61zm16.204 11.138v-31.004h4.361v11.141c1.248-2.104 3.039-3.271 4.752-3.271 2.025 0 3.74 1.168 5.064 3.037 1.324 1.947 2.104 4.908 2.104 8.725 0 3.74-.779 7.012-2.104 8.803-1.402 1.947-3.115 3.117-4.83 3.117-.934 0-1.947-.547-2.805-1.014-.934-.389-1.791-1.557-2.26-2.727v3.193h-4.282zm4.361-11.683c0 2.336.391 4.439.779 5.375.701 1.402 1.871 2.336 3.117 2.336 1.09 0 1.947-.701 2.57-1.557.701-.936 1.09-3.117 1.09-5.453 0-2.494-.389-4.596-1.09-5.766-.623-1.168-1.715-1.947-2.805-1.947-1.012 0-1.869.779-2.57 1.715-.7 1.168-1.091 2.959-1.091 5.297zm25.162 4.674l4.363.701c-.469 2.336-1.559 4.285-2.648 5.141-1.246.936-2.961 1.715-4.752 1.715-2.648 0-4.986-1.402-6.311-3.74-1.09-1.947-1.559-4.674-1.559-7.789 0-3.662.623-6.777 2.025-8.881s3.428-3.271 5.609-3.271c2.414 0 4.363 1.168 5.688 3.271 1.479 2.336 2.336 5.842 2.336 10.283H88.729c0 1.947.234 3.271 1.014 4.283.699.936 1.557 1.324 2.492 1.324.779 0 1.48-.154 1.791-.701.388-.467.857-1.401 1.245-2.336zm.391-6.233c0-1.635-.623-3.115-1.092-3.973-.623-.936-1.557-1.48-2.414-1.48-1.014 0-1.947.779-2.414 1.715-.779.934-1.014 2.336-1.014 3.738h6.934z"></path>
      <path d="M0 0h37.392L0 91.066V0zm62.865 0h37.859v89.896L62.865 0zM50.557 34.821L71.201 89.43H58.425l-8.803-17.293H35.6l14.957-37.316z" fill="#cc2229"></path>
    </g>
  </symbol>
  <symbol xmlns="http://www.w3.org/2000/svg" viewBox="0 0 435.816 437.46" id="chrome">
    <path d="M217.341.039s128.478-5.783 196.57 123.337H206.416s-39.188-1.289-72.593 46.255c-9.634 19.916-19.91 40.473-8.349 80.937C108.773 222.309 36.823 97.04 36.823 97.04S87.578 5.176 217.341.039z" fill="#c6352e"></path>
    <path d="M407.223 327.871s-59.247 114.143-205.118 108.533c17.995-31.148 103.772-179.682 103.772-179.682s20.709-33.289-3.744-85.991c-12.431-18.305-25.09-37.486-65.919-47.713 32.836-.326 177.285.021 177.285.021s54.168 89.891-6.276 204.832z" fill="#f4d911"></path>
    <path d="M28.373 328.738s-69.224-108.395 8.58-231.908c17.979 31.16 103.71 179.72 103.71 179.72s18.469 34.578 76.341 39.756c22.061-1.609 45.007-2.982 74.279-33.223-16.139 28.594-88.673 153.521-88.673 153.521S97.681 438.56 28.373 328.738z" fill="#81b354"></path>
    <path d="M202.105 437.46l29.187-121.793s32.092-2.504 58.982-32.017c-16.693 29.365-88.169 153.81-88.169 153.81z" fill="#7baa50"></path>
    <path d="M119.59 220.093c0-53.69 43.52-97.215 97.215-97.215 53.69 0 97.214 43.524 97.214 97.215 0 53.693-43.522 97.219-97.214 97.219-53.695 0-97.215-43.525-97.215-97.219z" fill="#fff"></path>
    <linearGradient id="a" gradientUnits="userSpaceOnUse" x1="-829.128" y1="1417.339" x2="-829.128" y2="1261.441" gradientTransform="matrix(1 0 0 -1 1045.93 1557.636)">
      <stop offset="0" stop-color="#a2c0e6"></stop>
      <stop offset="1" stop-color="#406cb1"></stop>
    </linearGradient>
    <path d="M135.86 220.093c0-44.702 36.238-80.941 80.945-80.941 44.698 0 80.94 36.239 80.94 80.941 0 44.703-36.242 80.945-80.94 80.945-44.707.001-80.945-36.244-80.945-80.945z" fill="url(#a)"></path>
    <path d="M413.5 123.039l-120.183 35.237s-18.123-26.596-57.104-35.258c33.776-.115 177.287.021 177.287.021z" fill="#e7ce12"></path>
    <path d="M123.137 246.197c-16.89-29.25-86.31-149.16-86.31-149.16l89.029 88.07s-9.149 18.82-5.68 45.7l2.961 15.39z" fill="#bc332c"></path>
  </symbol>
  <symbol fill="none" xmlns="http://www.w3.org/2000/svg" viewBox="0 0 124 141.53" id="css">
    <path d="M10.383 126.892L0 0l124 .255-10.979 126.637-50.553 14.638z" fill="#1b73ba"></path>
    <path d="M62.468 129.275V12.085l51.064.17-9.106 104.85z" fill="#1c88c7"></path>
    <path d="M100.851 27.064H22.298l2.128 15.318h37.276l-36.68 15.745 2.127 14.808h54.043l-1.958 20.68-18.298 3.575-16.595-4.255-1.277-11.745H27.83l2.042 24.426 32.681 9.106 31.32-9.957 4-47.745H64.765l36.085-14.978z" fill="#fff"></path>
  </symbol>
  <symbol xmlns="http://www.w3.org/2000/svg" viewBox="-10.63 -0.071 823.87 610.07" id="discord">
    <path d="M678.27 51.62C768.62 184.46 813.24 334.3 796.56 506.8c-.07.73-.45 1.4-1.05 1.84-68.42 50.24-134.71 80.73-200.07 100.95a2.55 2.55 0 01-2.81-.95c-15.1-21.01-28.82-43.16-40.84-66.42-.69-1.37-.06-3.02 1.36-3.56 21.79-8.21 42.51-18.05 62.44-29.7 1.57-.92 1.67-3.17.22-4.25-4.23-3.14-8.42-6.44-12.43-9.74-.75-.61-1.76-.73-2.61-.32-129.39 59.75-271.13 59.75-402.05 0-.85-.38-1.86-.25-2.59.35-4 3.3-8.2 6.57-12.39 9.71-1.45 1.08-1.33 3.33.25 4.25 19.93 11.43 40.65 21.49 62.41 29.74 1.41.54 2.08 2.15 1.38 3.52-11.76 23.29-25.48 45.44-40.86 66.45-.67.85-1.77 1.24-2.81.92-65.05-20.22-131.34-50.71-199.76-100.95-.57-.44-.98-1.14-1.04-1.87-13.94-149.21 14.47-300.29 118.18-455.18.25-.41.63-.73 1.07-.92C173.59 27.25 228.26 10.02 285.4.18c1.04-.16 2.08.32 2.62 1.24 7.06 12.5 15.13 28.53 20.59 41.63 60.23-9.2 121.4-9.2 182.89 0 5.46-12.82 13.25-29.13 20.28-41.63A2.47 2.47 0 01514.4.18c57.17 9.87 111.84 27.1 162.83 50.49.45.19.82.51 1.04.95zm-339.04 283.7c.63-44.11-31.53-80.61-71.9-80.61-40.04 0-71.89 36.18-71.89 80.61 0 44.42 32.48 80.6 71.89 80.6 40.05 0 71.9-36.18 71.9-80.6zm265.82 0c.63-44.11-31.53-80.61-71.89-80.61-40.05 0-71.9 36.18-71.9 80.61 0 44.42 32.48 80.6 71.9 80.6 40.36 0 71.89-36.18 71.89-80.6z" fill="#5865f2"></path>
  </symbol>
</svg>