<svg width="35" height="35" viewBox="0 0 35 35" fill="none" xmlns="http://www.w3.org/2000/svg">
<path d="M32.2237 22.2176C31.0637 21.1983 29.657 20.3177 28.0423 19.6002C27.352 19.2936 26.5443 19.6045 26.2377 20.2945C25.9312 20.9845 26.242 21.7922 26.932 22.099C28.2936 22.7041 29.4669 23.435 30.4189 24.2716C31.5924 25.3028 32.2656 26.7961 32.2656 28.3691V30.8984C32.2656 31.6523 31.6523 32.2656 30.8984 32.2656H4.10156C3.34774 32.2656 2.73438 31.6523 2.73438 30.8984V28.3691C2.73438 26.7961 3.40755 25.3028 4.58115 24.2716C5.96249 23.0577 9.98714 20.2344 17.5 20.2344C23.0785 20.2344 27.6172 15.6957 27.6172 10.1172C27.6172 4.53869 23.0785 0 17.5 0C11.9215 0 7.38281 4.53869 7.38281 10.1172C7.38281 13.3784 8.93425 16.2837 11.3375 18.135C6.94008 19.1016 4.20464 20.9623 2.7763 22.2176C1.01204 23.7677 0 26.0097 0 28.3691V30.8984C0 33.1602 1.83983 35 4.10156 35H30.8984C33.1602 35 35 33.1602 35 30.8984V28.3691C35 26.0097 33.988 23.7677 32.2237 22.2176ZM10.1172 10.1172C10.1172 6.04633 13.4291 2.73438 17.5 2.73438C21.5709 2.73438 24.8828 6.04633 24.8828 10.1172C24.8828 14.188 21.5709 17.5 17.5 17.5C13.4291 17.5 10.1172 14.188 10.1172 10.1172Z" fill="white"/>
</svg>
