<svg width="30" height="30" fill="none" xmlns="http://www.w3.org/2000/svg"><g clip-path="url(#clip0)" fill="#fff"><path d="M28.828 13.828H8.453a1.172 1.172 0 000 2.344h20.375a1.172 1.172 0 000-2.344zm0-8.788H8.453a1.172 1.172 0 100 2.343h20.375a1.172 1.172 0 100-2.344zm0 17.577H8.453a1.172 1.172 0 100 2.344h20.375a1.172 1.172 0 100-2.344zM1.582 7.793a1.582 1.582 0 100-3.164 1.582 1.582 0 000 3.164zm0 8.789a1.582 1.582 0 100-3.164 1.582 1.582 0 000 3.164zm0 8.789a1.582 1.582 0 100-3.164 1.582 1.582 0 000 3.164z"/></g><defs><clipPath id="clip0"><path fill="#fff" d="M0 0h30v30H0z"/></clipPath></defs></svg>