<svg width="35" height="35" fill="none" xmlns="http://www.w3.org/2000/svg"><path d="M32.224 22.218c-1.16-1.02-2.567-1.9-4.182-2.618a1.367 1.367 0 10-1.11 2.499c1.362.605 2.535 1.336 3.487 2.173a5.452 5.452 0 011.847 4.097v2.53a1.37 1.37 0 01-1.368 1.367H4.102a1.369 1.369 0 01-1.368-1.368V28.37c0-1.573.674-3.066 1.847-4.097 1.381-1.214 5.406-4.038 12.919-4.038 5.578 0 10.117-4.538 10.117-10.117C27.617 4.54 23.078 0 17.5 0 11.921 0 7.383 4.539 7.383 10.117c0 3.261 1.551 6.167 3.955 8.018-4.398.967-7.133 2.827-8.562 4.083A8.186 8.186 0 000 28.369v2.53A4.106 4.106 0 004.102 35h26.796A4.106 4.106 0 0035 30.898V28.37a8.186 8.186 0 00-2.776-6.151zm-22.107-12.1c0-4.072 3.312-7.384 7.383-7.384 4.07 0 7.383 3.312 7.383 7.383S21.57 17.5 17.5 17.5s-7.383-3.312-7.383-7.383z" fill="#fff"/></svg>